/* XPM */
static char *collectable_small1725964002[] = {
/* columns rows colors chars-per-pixel */
"20 20 2 1 ",
"  c #84357D",
". c red",
/* pixels */
"                    ",
"                    ",
"     ..       ..    ",
"    .....   .....   ",
"   ......   ......  ",
"   ....... .......  ",
"   ...............  ",
"   ...............  ",
"   ...............  ",
"   ...............  ",
"   ...............  ",
"    .............   ",
"     ...........    ",
"      .........     ",
"       .......      ",
"        .....       ",
"         ...        ",
"                    ",
"                    ",
"                    "
};
