/* XPM */
static char *_cdfcf5b859446c2d2b4b22dc44022b3MesQkH0nHFEtqF27[] = {
/* columns rows colors chars-per-pixel */
"20 20 70 1 ",
"  c #84357D",
". c black",
"X c black",
"o c black",
"O c black",
"+ c #040300",
"@ c #050500",
"# c black",
"$ c #0E0D00",
"% c #C7B200",
"& c #0F0D00",
"* c black",
"= c #0E0D00",
"- c #C1AD00",
"; c #A19000",
": c #0D0C00",
"> c black",
", c black",
"< c black",
"1 c black",
"2 c black",
"3 c #0D0C00",
"4 c #958600",
"5 c #8B7C00",
"6 c #0D0B00",
"7 c black",
"8 c black",
"9 c #0D0B00",
"0 c #7E7100",
"q c #867800",
"w c #0D0B00",
"e c black",
"r c black",
"t c #0C0B00",
"y c #796C00",
"u c black",
"i c #0D0B00",
"p c #938400",
"a c #978800",
"s c black",
"d c black",
"f c #0D0C00",
"g c #AC9A00",
"h c #E2CD00",
"j c #F8DF00",
"k c #F0DB00",
"l c #FFE500",
"z c #F0D800",
"x c #F9E000",
"c c #F9DF00",
"v c #F8E500",
"b c #958700",
"n c #8F8100",
"m c #827400",
"M c #887B00",
"N c #FFEC00",
"B c #F8E600",
"V c #918200",
"C c #8A7C00",
"Z c #837700",
"A c #F7ED00",
"S c #FFF400",
"D c #FFED00",
"F c #988800",
"G c #908100",
"H c #FFEB00",
"J c #A29200",
"K c #F9E500",
"L c #FAE000",
"P c white",
/* pixels */
"         &          ",
"         &          ",
"        &%&         ",
"        &h&         ",
"       &ljl&        ",
"       &klk&        ",
"       &llz&        ",
"       &llxl&&&     ",
"    &&&llllvlll&&&  ",
"  &&lllvllllNNBlll&&",
"&&llASDllllllNBlll&&",
"&&llllBHllllvll&&&  ",
"  &&&&llKllxl&&     ",
"      &&lLlz&       ",
"        &klk&       ",
"        &lll&       ",
"         &h&        ",
"         &%&        ",
"          &         ",
"          &         "
};
