/* XPM */
static char *_1498d31f0434887abb9a0b8286244768J3v6SVoCHHhslrK[] = {
/* columns rows colors chars-per-pixel */
"30 30 65 1 ",
"  c black",
". c red",
"X c red",
"o c red",
"O c red",
"+ c red",
"@ c red",
"# c red",
"$ c red",
"% c red",
"& c red",
"* c red",
"= c red",
"- c red",
"; c red",
": c red",
"> c red",
", c red",
"< c red",
"1 c None",
"2 c red",
"3 c red",
"4 c red",
"5 c red",
"6 c red",
"7 c red",
"8 c red",
"9 c red",
"0 c red",
"q c red",
"w c red",
"e c red",
"r c red",
"t c red",
"y c red",
"u c red",
"i c red",
"p c red",
"a c red",
"s c red",
"d c red",
"f c red",
"g c red",
"h c red",
"j c red",
"k c red",
"l c red",
"z c red",
"x c red",
"c c red",
"v c red",
"b c red",
"n c red",
"m c red",
"M c red",
"N c red",
"B c red",
"V c red",
"C c red",
"Z c red",
"A c red",
"S c red",
"D c red",
"F c red",
"G c white",
/* pixels */
" ..XoFO+@.          .@+OFoX.. ",
".#$%&F*=-;:>..  ..>:;-=*F&%$#.",
".$,&<F123456..  ..654321F<&,$.",
"789FFFFFFF0qwe..ewq0FFFFFFF987",
"r&tFFFFFFFyuip..piuyFFFFFFFt&r",
"FFFFFFFFFFFF3a..a3FFFFFFFFFFFF",
"FFFFFFFFFFFFsdffdsFFFFFFFFFFFF",
"FFFFFFFFFFFF&ghhg&FFFFFFFFFFFF",
"FFFFFFFFFFFF1*OO*1FFFFFFFFFFFF",
"FFFFFFFFFFFFFFFFFFFFFFFFFFFFFF",
"FFFFFFFFFFFFFFFFFFFFFFFFFFFFFF",
"FFFFFFFFFFFFFFFFFFFFFFFFFFFFFF",
"FFFFFFFFFFFFFFFFFFFFFFFFFFFFFF",
"FFFFFFFFFFFFFFFFFFFFFFFFFFFFFF",
"FFFFFFFFFFFFFFFFFFFFFFFFFFFFFF",
"FFFFFFFFFFFFFFFFFFFFFFFFFFFFFF",
"FFFFFFFFFFFFFFFFFFFFFFFFFFFFFF",
"FFFFFFFFFFFFFFFFFFFFFFFFFFFFFF",
"=j=kOFFFFFFFFFFFFFFFFFFFFOk=j=",
"l>zxcFFFFFFFFFFFFFFFFFFFFcxz>l",
" ..XoFFFFFFFFFFFFFFFFFFFFoX.. ",
" ..v41btFFFFFFFFFFFFFFtb14v.. ",
" ..nmMNBtFFFFFFFFFFFFtBNMmn.. ",
" ..VCZANbFFFFFFFFFFFFbNAZCV.. ",
"     .@+OFFFFFFFFFFFFO+@.     ",
"     .Cm4ScOFFFFFFOcS4mC.     ",
"     .VnvDxkFFFFFFkxDvnV.     ",
"        ..l=FFFFFF=l..        ",
"        ..l=FFFFFF=l..        ",
"        ..l=FFFFFF=l..        "
};
