/* XPM */
static char *_f53376ac0274686dd8f8e611d2f2d04LRoJPhy93LQNu6ow[] = {
/* columns rows colors chars-per-pixel */
"20 20 190 2 ",
"   c None",
".  c #390D0A",
"X  c #390D0C",
"o  c #3B0F0C",
"O  c #3A0F0D",
"+  c #3A0F0E",
"@  c #3B0F0E",
"#  c #3B100B",
"$  c #3B100C",
"%  c #3B100E",
"&  c #3C110D",
"*  c #3C100E",
"=  c #3C110E",
"-  c #3D120E",
";  c #3E120E",
":  c #3E130E",
">  c #3F140D",
",  c #3D1513",
"<  c #3D1514",
"1  c #3F1B1C",
"2  c #3D1F1F",
"3  c #3F2729",
"4  c #3F2A32",
"5  c #41150C",
"6  c #40140E",
"7  c #41150E",
"8  c #471B0B",
"9  c #44180E",
"0  c #461A0E",
"q  c #461B0E",
"w  c #471B0E",
"e  c #4B1F0D",
"r  c #491E0E",
"t  c #4A1E0E",
"y  c #4E210C",
"u  c #51240E",
"i  c #54280E",
"p  c #55290E",
"a  c #56290E",
"s  c #592B09",
"d  c #582B0E",
"f  c #582C0D",
"g  c #5A2D0D",
"h  c #5B2E0D",
"j  c #592C0E",
"k  c #5B2D0E",
"l  c #5D300E",
"z  c #4C2A19",
"x  c #502611",
"c  c #6B3C0E",
"v  c #6C3F0D",
"b  c #6D3F0D",
"n  c #43252D",
"m  c #42272E",
"M  c #46292A",
"N  c #442C33",
"B  c #432D37",
"V  c #412F36",
"C  c #432E37",
"Z  c #442F39",
"A  c #4C3337",
"S  c #45303A",
"D  c #5A333A",
"F  c #70400A",
"G  c #70410B",
"H  c #73450E",
"J  c #7A4A0B",
"K  c #6F4719",
"L  c #7A5112",
"P  c #512642",
"I  c #453741",
"U  c #453843",
"Y  c #473947",
"T  c #523449",
"R  c #4C3B50",
"E  c #583452",
"W  c #573358",
"Q  c #4A4154",
"!  c #554F57",
"~  c #564F57",
"^  c #5B4161",
"/  c #584066",
"(  c #574469",
")  c #5B4973",
"_  c #5C4973",
"`  c #5E4B7B",
"'  c #4E5570",
"]  c #4E5571",
"[  c #83520B",
"{  c #80510E",
"}  c #85560E",
"|  c #8A5B0E",
" . c #8C5D0D",
".. c #8E5E0E",
"X. c #90600D",
"o. c #9B6C0D",
"O. c #9E6E0E",
"+. c #A1700D",
"@. c #A6740D",
"#. c #A6750D",
"$. c #AA790E",
"%. c #AF7D0E",
"&. c #AA8508",
"*. c #B4830D",
"=. c #B7860D",
"-. c #B9870D",
";. c #B8880D",
":. c #BB890D",
">. c #BB8A0E",
",. c #BB9209",
"<. c #BC9309",
"1. c #BF9609",
"2. c #BF9709",
"3. c #C3910E",
"4. c #C09809",
"5. c #C19809",
"6. c #CB9B0C",
"7. c #CC990D",
"8. c #CE9B0D",
"9. c #D29D0B",
"0. c #D39E0B",
"q. c #D19F0C",
"w. c #D4A00D",
"e. c #D7A40C",
"r. c #D9AB0B",
"t. c #DBAC0B",
"y. c #D8A80D",
"u. c #D9A80D",
"i. c #DCA90D",
"p. c #E7B60B",
"a. c #E2B00C",
"s. c #E2B30D",
"d. c #E4B00D",
"f. c #E4B20C",
"g. c #E5B20D",
"h. c #E8B70B",
"j. c #EAB60D",
"k. c #E9B80B",
"l. c #EAB80C",
"z. c #EBB90C",
"x. c #EEBB0C",
"c. c #EEBB0D",
"v. c #EDBC0D",
"b. c #EEBD0D",
"n. c #F0BD0C",
"m. c #F0BF0C",
"M. c #F5C00D",
"N. c #F6C30D",
"B. c #FBC70D",
"V. c #5B6793",
"C. c #5D6F9E",
"Z. c #567296",
"A. c #567297",
"S. c #567398",
"D. c #63649B",
"F. c #7B49A4",
"G. c #7C5FBC",
"H. c #7D5FBE",
"J. c #6467A0",
"K. c #823093",
"L. c #8B4BBB",
"P. c #8E48BD",
"I. c #984ACD",
"U. c #984ED5",
"Y. c #9A52D8",
"T. c #9A52D9",
"R. c #8C6DDF",
"E. c #9C58E1",
"W. c #9C58E2",
"Q. c #9D58E4",
"!. c #A358EB",
"~. c #A358EC",
"^. c #A359EC",
"/. c #A359ED",
"(. c #A45AEE",
"). c #A45BEF",
"_. c #8C6EE1",
"`. c #8D71E5",
"'. c #8D71E6",
"]. c #8D72E7",
"[. c #8D73E8",
"{. c #8E73E8",
"}. c #5C87B5",
"|. c #5C88B7",
" X c #5C89B7",
".X c #6181B5",
"XX c #6792D0",
"oX c #6792D1",
"OX c #6A9EE1",
"+X c #6B9EE1",
/* pixels */
"                                        ",
"        = = = = = = = = = = =           ",
"      % + % + = = + % = % % = =         ",
"    = = 0 a 0 + + 0 a 7 + = % % = =     ",
"  = % r | >...g g ..%.c g H a = % %     ",
"  = + g 7.v.u.>.>.g.j.=.*.w.@.l a 0 =   ",
"= = = b q.4.1.l.N.B.c.,.<.n.g.$.O.a %   ",
"= % u @.a.4.1.h.t.r.p.4.4.l.c.3.} r %   ",
"= % u +.i.a.v.p.&.&.k.n.u.-.+.b 0 = =   ",
"= = 7 d { o.7.e.6.g.N.w.X.g r > + = =   ",
"      + 7 y F F [ 0.0.J 8 . + +         ",
"              V z L L z 4 2             ",
"        R P ` J.) ^ ^ _ D.( n Y         ",
"    V ' / K.I.W.T.U.U.T.W.L.W Q ' V     ",
"    M ! E P.!.~.(.(.(.~.~.Q.F.T ! M     ",
"    x K D G.[.]._.R._.].].[.G.D K x     ",
"      s A .XOXoXC.V.C.oXOXOX.XA s       ",
"        N Z. XS.I 3 U Z.}. XZ.N         ",
"        1 S Z n ,   < n V Z S 1         ",
"          % # % %   % # # # %           "
};
