/* XPM */
static char *_775d9afdbb443f4d4aff99b8464b64cN9nVb5xY2WZL2bEr[] = {
/* columns rows colors chars-per-pixel */
"20 20 34 1 ",
"  c red",
". c #84357D",
"X c red",
"o c red",
"O c red",
"+ c red",
"@ c red",
"# c red",
"$ c red",
"% c red",
"& c red",
"* c red",
"= c red",
"- c red",
"; c red",
": c red",
"> c red",
", c red",
"< c red",
"1 c red",
"2 c red",
"3 c red",
"4 c red",
"5 c red",
"6 c red",
"7 c red",
"8 c None",
"9 c red",
"0 c red",
"q c red",
"w c red",
"e c red",
"r c red",
"t c white",
/* pixels */
"....................",
"....................",
"..rrrrr:....:rrrrr..",
"rrrrrrrr....rrrrrrrr",
"rrrrrrrrr..rrrrrrrrr",
"rrrrrrrrrrrrrrrrrrrr",
"rrrrrrrrrrrrrrrrrrrr",
"rrrrrrrrrrrrrrrrrrrr",
"rrrrrrrrrrrrrrrrrrrr",
"rrrrrrrrrrrrrrrrrrrr",
"rrrrrrrrrrrrrrrrrrrr",
"rrrrrrrrrrrrrrrrrrrr",
".rrrrrrrrrrrrrrrrrr.",
"..rrrrrrrrrrrrrrrr..",
"...rrrrrrrrrrrrrr...",
"....rrrrrrrrrrrr....",
".....rrrrrrrrrr.....",
"......rrrrrrrr......",
"........rrrr........",
".........rr........."
};
