/* XPM */
static char *_2efebca04da48148bc20c353f6feb1fShVse3LiAZIzPJUa[] = {
/* columns rows colors chars-per-pixel */
"20 30 7 1 ",
"  c None",
". c #3D120E",
"X c #FFC90E",
"o c black",
"O c #67A4E0",
"+ c #E607F8",
"@ c white",
/* pixels */
"                    ",
"     .........      ",
"   ............     ",
"  ..............    ",
" ................   ",
" ................   ",
" ...X.X...........  ",
"  ..X.XX..........  ",
"  .XXXXX..........  ",
"  .XXXXX..XX......  ",
"  .XooXX.XXX......  ",
" .XXXXXX.XX.......  ",
" .XXXXXXXX........  ",
" .ooXXXXX........   ",
"  .XXXXXX...... .   ",
"   .....XX.. .      ",
"       .XX.         ",
"       ....         ",
"      ...O..        ",
"     .OOOO.O.       ",
"     .++.O.+.       ",
"    .OOO.O.O.       ",
"    .+++...+.       ",
"    .OO.XX.O.       ",
"    .OO.XX.O.       ",
"     .OO..OO.       ",
"      .OOOO.        ",
"      ......        ",
"       ....         ",
"      .....         "
};
