/* XPM */
static char *_3f02d0fbe2a484efe1cbeb9374fd2f0AyUtPjeiIebzuZs5[] = {
/* columns rows colors chars-per-pixel */
"13 20 186 2 ",
"   c #84357D",
".  c #3D120E",
"X  c #3B100E",
"o  c #310000",
"O  c #3A0A02",
"+  c #3B0E08",
"@  c #6499D1",
"#  c #6DBCFF",
"$  c #F5BE0A",
"%  c #794B0E",
"&  c #3D130F",
"*  c #3D120E",
"=  c #3D120E",
"-  c #3D120E",
";  c #3D120E",
":  c #3D120E",
">  c #3D120E",
",  c #3D120E",
"<  c #3D120E",
"1  c None",
"2  c #3D120E",
"3  c #3D120E",
"4  c #3D120E",
"5  c #3C110E",
"6  c #3D120E",
"7  c #3D120E",
"8  c #3D120E",
"9  c #3D120E",
"0  c #3D120E",
"q  c #3D120E",
"w  c #3D120E",
"e  c #3D120E",
"r  c #3B100E",
"t  c #3C110E",
"y  c #3D120E",
"u  c #40140E",
"i  c #3C110E",
"p  c #3D120E",
"a  c #390E0E",
"s  c #3B100E",
"d  c #3D120E",
"f  c #3B100E",
"g  c #55290E",
"h  c #3C110E",
"j  c #3D120E",
"k  c #3D120E",
"l  c #390E0E",
"z  c #3B100E",
"x  c #53260D",
"c  c #76480D",
"v  c #70420D",
"b  c #360B0D",
"n  c #3D120E",
"m  c #3D120E",
"M  c #3D120E",
"N  c #320000",
"B  c #330400",
"V  c #3B1D25",
"C  c #4A1F0F",
"Z  c #4B1F0F",
"A  c #3D1718",
"S  c #3B0B04",
"D  c #3A0A02",
"F  c #2F0000",
"G  c #473541",
"H  c #43292E",
"J  c #556889",
"K  c #43282E",
"L  c #473642",
"P  c #442D35",
"I  c #525A76",
"U  c #505A74",
"Y  c #43272D",
"T  c #54270D",
"R  c #44190E",
"E  c #4B200E",
"W  c #3D130F",
"Q  c #473440",
"!  c #3D120E",
"~  c #3D120E",
"^  c #401F21",
"/  c #3E1613",
"(  c #3D120E",
")  c #412022",
"_  c #3C100C",
"`  c #3C110D",
"'  c #3C110D",
"]  c #3C110C",
"[  c #3D120E",
"{  c #3C110E",
"}  c #3B100E",
"|  c #45190E",
" . c #43180E",
".. c #41150E",
"X. c #3A0F0E",
"o. c #592D0E",
"O. c #C08D0E",
"+. c #67390E",
"@. c #AF7E0E",
"#. c #5E320E",
"$. c #5B2E0E",
"%. c #481C0E",
"&. c #380D0E",
"*. c #8B5D0E",
"=. c #FFD20E",
"-. c #DFAE0E",
";. c #C7940D",
":. c #FBC60E",
">. c #CC980E",
",. c #E1AD0E",
"<. c #A3720D",
"1. c #44180E",
"2. c #8A5B0D",
"3. c #BD960A",
"4. c #CBA20B",
"5. c #FFCE0E",
"6. c #FCC70D",
"7. c #B79109",
"8. c #D9AC0B",
"9. c #DDAB0E",
"0. c #B6840E",
"q. c #55290E",
"w. c #4B200E",
"e. c #D09D0D",
"r. c #BC940A",
"t. c #CBA00B",
"y. c #E9B70C",
"u. c #EDBA0D",
"i. c #B48E09",
"p. c #D4AA0B",
"a. c #FECB0E",
"s. c #A9780E",
"d. c #42170E",
"f. c #D09E0E",
"g. c #FFCF0E",
"h. c #FCCA0E",
"j. c #8F7107",
"k. c #B58F09",
"l. c #FFD10E",
"z. c #DCAB0E",
"x. c #9C6C0D",
"c. c #90600E",
"v. c #E3AF0E",
"b. c #F0BB0E",
"n. c #FFCA0E",
"m. c #D7A40E",
"M. c #390F0E",
"N. c #F3BF0E",
"B. c #7A4908",
"V. c #4F5873",
"C. c #463E52",
"Z. c #546483",
"A. c #883099",
"S. c #AB4DEB",
"D. c #AB51EE",
"F. c #A64EE3",
"G. c #533350",
"H. c #4B4355",
"J. c #8645AE",
"K. c #A55BF0",
"L. c #A359EB",
"P. c #A35BEE",
"I. c #7B469E",
"U. c #4A4355",
"Y. c #73440D",
"T. c #7A52AC",
"R. c #956EEC",
"E. c #946FEC",
"W. c #9470ED",
"Q. c #936DE9",
"!. c #7B52AD",
"~. c #597EA5",
"^. c #64AAE3",
"/. c #5880A7",
"(. c #557596",
"). c #619ED2",
"_. c #65ACE5",
"`. c #576E93",
"'. c #6295CB",
"]. c #5B7AA4",
"[. c #649AD2",
"{. c #401F21",
"}. c #401C1D",
"|. c #3C110C",
" X c #3C110D",
".X c white",
/* pixels */
"    * = - ; ; ; : > .     ",
". . , < [ [ [ [ 1 2 3 .   ",
". 4 5 { { [ { { [ 6 7 8 . ",
"9 0 } | { }  ...X.{ q w . ",
"e r o.O.+.| @.#.$.%.} t X ",
"y &.*.=.-.;.:.>.,.<.1.u i ",
"p &.2.3.4.5.6.7.8.9.0.q.a ",
"} w.e.r.t.y.u.i.p.a.s.d.s ",
"} w.f.g.h.j.k.l.z.x.d.} d ",
"p f g c.v.b.n.m.$.M.h j e ",
", k l z x c N.v b n m ; M ",
"  o N B V C B.Z A S D O   ",
"+ F G H J V.C.V.Z.K L F + ",
"@ P I A.S.D.D.D.F.G.U P @ ",
"# Y H.J.K.L.L.L.P.I.U.Y # ",
"$ T Y.T.R.E.W.Q.R.!.Y.T $ ",
"% R E ~.^./.(.)._.~.E R % ",
"  . W `.'.Q ! ].[.`.W .   ",
"  . ~ ^ {./ ( }.) ^ ~ .   ",
"    & _ |.` '  X] _ &     "
};
