/* XPM */
static char *_94b8f65226e41f0e3f7414359d01921ACiLvRRLeDHONJEQ[] = {
/* columns rows colors chars-per-pixel */
"20 30 7 1 ",
"  c None",
". c #3D120E",
"X c #FFC90E",
"o c black",
"O c #67A4E0",
"+ c #E607F8",
"@ c white",
/* pixels */
"                    ",
"     .........      ",
"    ............    ",
"   ..............   ",
"  ................  ",
"  ................  ",
" ...........X.X...  ",
" ..........XX.X..   ",
" ..........XXXXX.   ",
" ......XX..XXXXX.   ",
" ......XXX.XXooX.   ",
" .......XX.XXXXXX.  ",
" ........XXXXXXXX.  ",
"  ........XXXXXoo.  ",
"  . ......XXXXXX.   ",
"     . ..XX.....    ",
"        .XX.        ",
"        ....        ",
"       ..O...       ",
"      .O.OOOO.      ",
"      .+.O.++.      ",
"      .O.O.OOO.     ",
"      .+...+++.     ",
"      .O.XX.OO.     ",
"      .O.XX.OO.     ",
"      .OO..OO.      ",
"       .OOOO.       ",
"       ......       ",
"        ....        ",
"        .....       "
};
