/* XPM */
static char *_e101f74068c4d1ca7258c0829506188Ug4eBHS3lleKPOgT[] = {
/* columns rows colors chars-per-pixel */
"20 30 7 1 ",
"  c None",
". c #3D120E",
"X c #FFC90E",
"o c black",
"O c #67A4E0",
"+ c #E607F8",
"@ c white",
/* pixels */
"                    ",
"     .........      ",
"    ...........     ",
"   .............    ",
"  ...............   ",
"  ................  ",
" ....X....X.......  ",
" ...XXX..XX..X....  ",
" ...XXXXXXXXXXX.... ",
"....XXXXXXXXXXX.X.. ",
"....XooXXXXooXXXX.. ",
"...XXXXXXXXXXXXX... ",
"...XXXXXooXXXXX.... ",
"....XXXXXXXXX...... ",
"......XXXXXX....... ",
" . ......XX..... .  ",
"        .XX.   .    ",
"       .......      ",
"    ...O....O...    ",
"   .O.OOOOOOOO.O.   ",
"  .O.+++++++++..O.  ",
"  .O.OOOOOOOOOO.O.  ",
"  ...++++++++++...  ",
"  .X.OOOOOOOOOO.X.  ",
"  ...OOOOOOOOOO...  ",
"    .OOO...OOOO.    ",
"    .OOO. .OOOO.    ",
"    ..... ......    ",
"      ... ....      ",
"     .... .....     "
};
