/* XPM */
static char *f578a6b7134e47cafdd14dd74092959aN9sQjPlYc7PmJP8w[] = {
/* columns rows colors chars-per-pixel */
"20 30 6 1 ",
"  c None",
". c #3D120E",
"X c #FFC90E",
"o c #67A4E0",
"O c #E607F8",
"+ c white",
/* pixels */
"                    ",
"     .........      ",
"    ...........     ",
"   .............    ",
"  ...............   ",
" ................   ",
" .................  ",
" .................  ",
"..................  ",
"................... ",
"................... ",
"................... ",
"................... ",
"................... ",
"................... ",
" . ............. .  ",
"   .   .XX.         ",
"     .......        ",
"   ...oooooo...     ",
"  .o.oooooooo.o.    ",
" .o..OOOOOOOOO.o.   ",
" .o.oooooooooo.o.   ",
" ...OOOOOOOOOO...   ",
" .X.oooooooooo.X.   ",
" ...oooooooooo...   ",
"   .oooo...ooo.     ",
"   .oooo. .ooo.     ",
"   ...... .....     ",
"     .... ...       ",
"    ..... .....     "
};
