/* XPM */
static char *_a50a5c432af4bdaf13f4c3783e91195ycIT47XNLdr5tsaL[] = {
/* columns rows colors chars-per-pixel */
"50 50 169 2 ",
"   c black",
".  c red",
"X  c red",
"o  c red",
"O  c red",
"+  c red",
"@  c red",
"#  c red",
"$  c red",
"%  c red",
"&  c red",
"*  c red",
"=  c red",
"-  c red",
";  c red",
":  c red",
">  c red",
",  c red",
"<  c red",
"1  c red",
"2  c red",
"3  c red",
"4  c red",
"5  c red",
"6  c red",
"7  c red",
"8  c red",
"9  c red",
"0  c red",
"q  c red",
"w  c red",
"e  c red",
"r  c red",
"t  c red",
"y  c red",
"u  c red",
"i  c red",
"p  c red",
"a  c red",
"s  c red",
"d  c red",
"f  c red",
"g  c red",
"h  c red",
"j  c red",
"k  c red",
"l  c red",
"z  c red",
"x  c red",
"c  c red",
"v  c red",
"b  c red",
"n  c red",
"m  c red",
"M  c red",
"N  c red",
"B  c red",
"V  c red",
"C  c red",
"Z  c red",
"A  c red",
"S  c red",
"D  c red",
"F  c red",
"G  c red",
"H  c red",
"J  c red",
"K  c red",
"L  c red",
"P  c red",
"I  c red",
"U  c red",
"Y  c red",
"T  c red",
"R  c red",
"E  c red",
"W  c red",
"Q  c red",
"!  c red",
"~  c red",
"^  c red",
"/  c red",
"(  c red",
")  c red",
"_  c None",
"`  c red",
"'  c red",
"]  c red",
"[  c red",
"{  c red",
"}  c red",
"|  c red",
" . c red",
".. c red",
"X. c red",
"o. c red",
"O. c red",
"+. c red",
"@. c red",
"#. c red",
"$. c red",
"%. c red",
"&. c red",
"*. c red",
"=. c red",
"-. c red",
";. c red",
":. c red",
">. c red",
",. c red",
"<. c red",
"1. c red",
"2. c red",
"3. c red",
"4. c red",
"5. c red",
"6. c red",
"7. c red",
"8. c red",
"9. c red",
"0. c red",
"q. c red",
"w. c red",
"e. c red",
"r. c red",
"t. c red",
"y. c red",
"u. c red",
"i. c red",
"p. c red",
"a. c red",
"s. c red",
"d. c red",
"f. c red",
"g. c red",
"h. c red",
"j. c red",
"k. c red",
"l. c red",
"z. c red",
"x. c red",
"c. c red",
"v. c red",
"b. c red",
"n. c red",
"m. c red",
"M. c red",
"N. c red",
"B. c red",
"V. c red",
"C. c red",
"Z. c red",
"A. c red",
"S. c red",
"D. c red",
"F. c red",
"G. c red",
"H. c red",
"J. c red",
"K. c red",
"L. c red",
"P. c red",
"I. c red",
"U. c red",
"Y. c red",
"T. c red",
"R. c red",
"E. c red",
"W. c white",
/* pixels */
"  . . X o O + @ # E.$ % & * = - ; . .                         . . ; - = * & % $ E.# @ + O o X . .   ",
". X : > , < 1 2 3 E.4 5 6 7 8 9 0 q w e : ; . .     . . ; : e w q 0 9 8 7 6 5 4 E.3 2 1 < , > : X . ",
". e r * t y u i p E.a s d f g t h j k l z ; . .     . . ; z l k j h t g f d s a E.p i u y t * r e . ",
". > , x c v b n m E.m M N B V C 1 Z A S r : . . . . . . : r S A Z 1 C V B N M m E.m n b v c x , > . ",
"D F G + H J K L P E.P I U b Y Y T R E t * W Q : . . : Q W * t E R T Y Y b U I P E.P L K J H + G F D ",
"! ~ ^ H / ( ) _ E.E.E.` p # # # ' ] [ { t } | e . . e | } t { [ ] ' # # # p ` E.E.E._ ) ( / H ^ ~ ! ",
"+  .H Y ( a E.E.E.E.E.E.E.E.E.E.L ..N [ X.o.k z . . z k o.X.[ N ..L E.E.E.E.E.E.E.E.E.E.a ( Y H  .+ ",
"@ O.+.@.p ` E.E.E.E.E.E.E.E.E.E.P p U ] #.$.%.q . . q %.$.#.] U p P E.E.E.E.E.E.E.E.E.E.` p @.+.O.@ ",
"&.3 p *.P _ E.E.E.E.E.E.E.E.E.E.E.E.L ' T 1 =.0 . . 0 =.1 T ' L E.E.E.E.E.E.E.E.E.E.E.E._ P *.p 3 &.",
"E.E.E.E.E.E.E.E.E.E.E.E.E.E.E.E.E.E.E.-.Y ;.:.l . . l :.;.Y -.E.E.E.E.E.E.E.E.E.E.E.E.E.E.E.E.E.E.E.",
"E.E.E.E.E.E.E.E.E.E.E.E.E.E.E.E.E.E.E.-.J R ~ 8 >.>.8 ~ R J -.E.E.E.E.E.E.E.E.E.E.E.E.E.E.E.E.E.E.E.",
"E.E.E.E.E.E.E.E.E.E.E.E.E.E.E.E.E.E.E.&.,.<.Z 7 1.1.7 Z <.,.&.E.E.E.E.E.E.E.E.E.E.E.E.E.E.E.E.E.E.E.",
"E.E.E.E.E.E.E.E.E.E.E.E.E.E.E.E.E.E.E.a ..5 2.+ 3.3.+ 2.5 ..a E.E.E.E.E.E.E.E.E.E.E.E.E.E.E.E.E.E.E.",
"E.E.E.E.E.E.E.E.E.E.E.E.E.E.E.E.E.E.E.` p K 4.5 % % 5 4.K p ` E.E.E.E.E.E.E.E.E.E.E.E.E.E.E.E.E.E.E.",
"E.E.E.E.E.E.E.E.E.E.E.E.E.E.E.E.E.E.E.E.P *.p 3 # # 3 p *.P E.E.E.E.E.E.E.E.E.E.E.E.E.E.E.E.E.E.E.E.",
"E.E.E.E.E.E.E.E.E.E.E.E.E.E.E.E.E.E.E.E.E._ P m m m m P _ E.E.E.E.E.E.E.E.E.E.E.E.E.E.E.E.E.E.E.E.E.",
"E.E.E.E.E.E.E.E.E.E.E.E.E.E.E.E.E.E.E.E.E.E.E.E.E.E.E.E.E.E.E.E.E.E.E.E.E.E.E.E.E.E.E.E.E.E.E.E.E.E.",
"E.E.E.E.E.E.E.E.E.E.E.E.E.E.E.E.E.E.E.E.E.E.E.E.E.E.E.E.E.E.E.E.E.E.E.E.E.E.E.E.E.E.E.E.E.E.E.E.E.E.",
"E.E.E.E.E.E.E.E.E.E.E.E.E.E.E.E.E.E.E.E.E.E.E.E.E.E.E.E.E.E.E.E.E.E.E.E.E.E.E.E.E.E.E.E.E.E.E.E.E.E.",
"E.E.E.E.E.E.E.E.E.E.E.E.E.E.E.E.E.E.E.E.E.E.E.E.E.E.E.E.E.E.E.E.E.E.E.E.E.E.E.E.E.E.E.E.E.E.E.E.E.E.",
"E.E.E.E.E.E.E.E.E.E.E.E.E.E.E.E.E.E.E.E.E.E.E.E.E.E.E.E.E.E.E.E.E.E.E.E.E.E.E.E.E.E.E.E.E.E.E.E.E.E.",
"E.E.E.E.E.E.E.E.E.E.E.E.E.E.E.E.E.E.E.E.E.E.E.E.E.E.E.E.E.E.E.E.E.E.E.E.E.E.E.E.E.E.E.E.E.E.E.E.E.E.",
"E.E.E.E.E.E.E.E.E.E.E.E.E.E.E.E.E.E.E.E.E.E.E.E.E.E.E.E.E.E.E.E.E.E.E.E.E.E.E.E.E.E.E.E.E.E.E.E.E.E.",
"E.E.E.E.E.E.E.E.E.E.E.E.E.E.E.E.E.E.E.E.E.E.E.E.E.E.E.E.E.E.E.E.E.E.E.E.E.E.E.E.E.E.E.E.E.E.E.E.E.E.",
"E.E.E.E.E.E.E.E.E.E.E.E.E.E.E.E.E.E.E.E.E.E.E.E.E.E.E.E.E.E.E.E.E.E.E.E.E.E.E.E.E.E.E.E.E.E.E.E.E.E.",
"E.E.E.E.E.E.E.E.E.E.E.E.E.E.E.E.E.E.E.E.E.E.E.E.E.E.E.E.E.E.E.E.E.E.E.E.E.E.E.E.E.E.E.E.E.E.E.E.E.E.",
"E.E.E.E.E.E.E.E.E.E.E.E.E.E.E.E.E.E.E.E.E.E.E.E.E.E.E.E.E.E.E.E.E.E.E.E.E.E.E.E.E.E.E.E.E.E.E.E.E.E.",
"E.E.E.E.E.E.E.E.E.E.E.E.E.E.E.E.E.E.E.E.E.E.E.E.E.E.E.E.E.E.E.E.E.E.E.E.E.E.E.E.E.E.E.E.E.E.E.E.E.E.",
"_ _ _ _ _ _ E.E.E.E.E.E.E.E.E.E.E.E.E.E.E.E.E.E.E.E.E.E.E.E.E.E.E.E.E.E.E.E.E.E.E.E.E.E._ _ _ _ _ _ ",
"s s i i 5.( # ) _ E.E.E.E.E.E.E.E.E.E.E.E.E.E.E.E.E.E.E.E.E.E.E.E.E.E.E.E.E.E.E.E._ ) # ( 5.i i s s ",
"R R ;.V B 6.+.M m E.E.E.E.E.E.E.E.E.E.E.E.E.E.E.E.E.E.E.E.E.E.E.E.E.E.E.E.E.E.E.E.m M +.6.B V ;.R R ",
"7.7.8.9.0.q.w.e.) E.E.E.E.E.E.E.E.E.E.E.E.E.E.E.E.E.E.E.E.E.E.E.E.E.E.E.E.E.E.E.E.) e.w.q.0.9.8.7.7.",
"r.r.t.r.! & R / I E.E.E.E.E.E.E.E.E.E.E.E.E.E.E.E.E.E.E.E.E.E.E.E.E.E.E.E.E.E.E.E.I / R & ! r.t.r.r.",
"> > z q y.g u.i.3 E.E.E.E.E.E.E.E.E.E.E.E.E.E.E.E.E.E.E.E.E.E.E.E.E.E.E.E.E.E.E.E.3 i.u.g y.q z > > ",
"  . . X o ! p.w.n E._ ` P E.E.E.E.E.E.E.E.E.E.E.E.E.E.E.E.E.E.E.E.E.E.E.E.P ` _ E.n w.p.! o X . .   ",
"  . . X a.s.d.f.U ) I 4 ) P E.E.E.E.E.E.E.E.E.E.E.E.E.E.E.E.E.E.E.E.E.E.P ) 4 I ) U f.d.s.a.X . .   ",
"  . . X l g.h.j.k.Y l.z.' I P E.E.E.E.E.E.E.E.E.E.E.E.E.E.E.E.E.E.E.E.P I ' z.l.Y k.j.h.g.l X . .   ",
"  . . ; > 8 j x.c.{ p.v.b.' ) P E.E.E.E.E.E.E.E.E.E.E.E.E.E.E.E.E.E.P ) ' b.v.p.{ c.x.j 8 > ; . .   ",
"  . . ; n.Q m.M.y.t.N.:.v.z.4 ` E.E.E.E.E.E.E.E.E.E.E.E.E.E.E.E.E.E.` 4 z.v.:.N.t.y.M.m.Q n.; . .   ",
"        . . X B.w V.C.%.^ 5 $ ` E.E.E.E.E.E.E.E.E.E.E.E.E.E.E.E.E.E.` $ 5 ^ %.C.V.w B.X . .         ",
"        . . ; ; n.>.0 Z.d.A.$ ` E.E.E.E.E.E.E.E.E.E.E.E.E.E.E.E.E.E.` $ A.d.Z.0 >.n.; ; . .         ",
"        . . . . ; - = F f b.S.M &.I ) m _ E.E.E.E.E.E.E.E._ m ) I &.M S.b.f F = - ; . . . .         ",
"            . . ; ; B.a.:.D.v b.T / e.M ) E.E.E.E.E.E.E.E.) M e./ T b.v D.:.a.B.; ; . .             ",
"            . . ; . . m.j 8.0.^ F.#.w.+.# E.E.E.E.E.E.E.E.# +.w.#.F.^ 0.8.j m.. . ; . .             ",
"                  . . Q G.H.h J.K.& L.T ( _ E.E.E.E.E.E._ ( T L.& K.J.h H.G.Q . .                   ",
"                  . . n.q 9 D D y.o.{ <.P._ E.E.E.E.E.E._ P.<.{ o.y.D D 9 q n.. .                   ",
"                  . . ; ; X . . I.U.Y.T.s _ E.E.E.E.E.E._ s T.Y.U.I.. . X ; ; . .                   ",
"                            . . > R.9.#.s _ E.E.E.E.E.E._ s #.9.R.> . .                             ",
"                            . . > r.7.R s _ E.E.E.E.E.E._ s R 7.r.> . .                             ",
"                            . . > r.7.R s _ E.E.E.E.E.E._ s R 7.r.> . .                             "
};
