/* XPM */
static char *_1dcdf0547a845688ef1dece369d66b3N3ilj5apmMQ63M1U[] = {
/* columns rows colors chars-per-pixel */
"50 50 141 2 ",
"   c #84357D",
".  c #020200",
"X  c #080700",
"o  c #0D0C00",
"O  c #110F00",
"+  c #131100",
"@  c #1B1700",
"#  c #1B1800",
"$  c #211D00",
"%  c #252100",
"&  c #2A2600",
"*  c #2D2900",
"=  c #312B00",
"-  c #3B3400",
";  c #3F3800",
":  c #443C00",
">  c #4C4400",
",  c #534A00",
"<  c #5D5200",
"1  c #655B00",
"2  c #685D00",
"3  c #6D6200",
"4  c #756900",
"5  c #786D00",
"6  c #7E7100",
"7  c #827500",
"8  c #847800",
"9  c #8A7C00",
"0  c #8F8000",
"q  c #928300",
"w  c #A49400",
"e  c #A89600",
"r  c #AB9A00",
"t  c #B5A300",
"y  c #B9A600",
"u  c #BDAC00",
"i  c #B9B100",
"p  c #C1AE00",
"a  c #C2B100",
"s  c #CBB700",
"d  c #CDBB00",
"f  c #D2BD00",
"g  c #D6C200",
"h  c #DBC500",
"j  c #DEC900",
"k  c #E2CC00",
"l  c #E7D000",
"z  c #EBD400",
"x  c #ECD800",
"c  c #F0DE00",
"v  c #F0DF00",
"b  c #F3DE00",
"n  c #F5DC00",
"m  c #F6DD00",
"M  c #F7DF00",
"N  c #F2DB00",
"B  c #F8DF00",
"V  c #F9DF00",
"C  c #F8DF00",
"Z  c #F6E000",
"A  c #F6E200",
"S  c #F6E300",
"D  c #F9E000",
"F  c #FAE100",
"G  c #FBE100",
"H  c #FAE200",
"J  c #FBE200",
"K  c #FAE300",
"L  c #FBE300",
"P  c #FCE200",
"I  c #FCE300",
"U  c #FDE300",
"Y  c #F9E400",
"T  c #F9E500",
"R  c #FAE400",
"E  c #FBE400",
"W  c #FAE500",
"Q  c #FBE500",
"!  c #F8E700",
"~  c #F9E700",
"^  c #FBE600",
"/  c #FBE700",
"(  c #FCE400",
")  c #FDE400",
"_  c #FCE500",
"`  c #FDE500",
"'  c #FEE400",
"]  c #FFE400",
"[  c #FEE500",
"{  c #FFE500",
"}  c #FDE600",
"|  c #FDE700",
" . c #FEE600",
".. c #FFE600",
"X. c #FFE700",
"o. c #FDE400",
"O. c #F9E900",
"+. c #FBE800",
"@. c #FBE900",
"#. c #FBEA00",
"$. c #FCE800",
"%. c #FDE800",
"&. c #FCE900",
"*. c #FDE900",
"=. c #FEE800",
"-. c #FFE800",
";. c #FEE900",
":. c #FFE900",
">. c #FCEA00",
",. c #FDEA00",
"<. c #FCEB00",
"1. c #FDEB00",
"2. c #FEEA00",
"3. c #FFEA00",
"4. c #FEEB00",
"5. c #FFEB00",
"6. c #F9ED00",
"7. c #FBEC00",
"8. c #FDEC00",
"9. c #FCED00",
"0. c #FEEC00",
"q. c #FFEC00",
"w. c #FEED00",
"e. c #FFED00",
"r. c #FCEE00",
"t. c #FEEE00",
"y. c #FFEE00",
"u. c #FFEF00",
"i. c #FFEA00",
"p. c #FBF000",
"a. c #FDF100",
"s. c #FEF000",
"d. c #FFF000",
"f. c #FEF100",
"g. c #FFF100",
"h. c #FFF200",
"j. c #FEF300",
"k. c #FFF300",
"l. c #FFF400",
"z. c #FFF700",
"x. c #FFFC00",
/* pixels */
"                                            o o o                                                   ",
"                                            o o o                                                   ",
"                                            X X X                                                   ",
"                                            O O O                                                   ",
"                                            - : ; *                                                 ",
"                                          $ < 7 4 ; O                                               ",
"                                        X % 3 r q : O                                               ",
"                                        . $ 4 u w : X .                                             ",
"                                        X & 6 a e > + .                                             ",
"                                      = : 1 w g p 7 , ;                                             ",
"                                    + > 0 u h z k d r 3 &                                           ",
"                                    + , t M ..K U ..j 7 & .                                         ",
"                                  . + , t K q.U -.q.k 7 & .                                         ",
"                                  . + > r N -.......g 6 & X                                         ",
"                                  . + > r N -.....K g 5 % .                                         ",
"                                  . + , t M -.....K f 4 $ .                                         ",
"                                  . O , t K q.....K g 9 : $                                         ",
"                                  . X > t K q.....K l u q 3 - .   . . .                             ",
"                                  . + , t K q...U K M N k r , + X O + + +                           ",
"                                  - , 7 s U -...U U U q.-.d 8 , > , , , > :                         ",
"                    . . . . . . $ 3 r f z ........U ..-...z s t t t t y e 3 $ . . . . . .           ",
"                    & & & & % % : q k -...............^ ^ ^ K K K K ....k q : % % & & & &           ",
"              . . - 3 7 7 7 7 6 q a c q.-...............^ -.q.s.s.s.s.s.Z a q 6 7 7 7 7 3 : O   o o ",
"          + O X + , r j z k k k k x A ^ ....................-.-.q.-.-.@.A x k k k k z j r , O X o o ",
"          > , > , 8 d -.l.s.s.q.q.-.^ ^ U ..........U ......-.-.-.q.-.@.@.@.q.q.q.s.l.6.u , + X o o ",
"o o X O > q t t t s x q.l.s.l.s.q.-.....U ..........U U ........-.-.-.^ @.@.q.q.q.s.l.6.u , + X o o ",
"o o X O , y B -.U ^ @.6.p.s.s.q.-.-.............................-.-.-.@.S x k k k k z j r , O X o o ",
"o o X + , i p.x.l.s.s.s.s.s.s.q.@.-...............U ..........^ -.q.s.s.Z a q 6 7 7 7 7 3 : O   o o ",
"o o X O , y B -.U K K K K K ^ ^ ^ @.-.-.....................^ ^ K K ....k q : % % & & & &           ",
"o o X O > q t y t t t t t t s z -.q.q.-.................U ..-.A h u t y e 3 $ . . . . X .           ",
"          > , , , , , , > , 8 d -.s.q.-.^ ^ U ........U K ..q.x r 1 > > > :                         ",
"          + + + + + + O X + , r j l k z c ^ ..U U U ..U B n z s 7 * X o +                           ",
"              . . . . .   . - 3 7 7 7 e j -.-...U ....U n f e 7 , #   .                             ",
"                              & & % * 2 u B ..K U ......z t 1 * @                                   ",
"                              . . . X : 0 u j N K ......z r > X .                                   ",
"                                        : 1 w j K ......x r > o .                                   ",
"                                        X * 6 h ......-.N r > + .                                   ",
"                                        . % 6 k q.-...q.^ t , + .                                   ",
"                                        . & 7 j -.....-.M t , +                                     ",
"                                          & 3 r f z z j u 0 > +                                     ",
"                                            ; , 7 a g w 1 : =                                       ",
"                                            . + > e a 6 & X                                         ",
"                                            . X : w u 4 $ .                                         ",
"                                              O : q r 3 % X                                         ",
"                                              O ; 4 7 < $                                           ",
"                                                * ; : -                                             ",
"                                                  O O O                                             ",
"                                                  X X X                                             ",
"                                                  o o o                                             ",
"                                                  o o o                                             "
};
