/* XPM */
static char *b2b8e8999d1c4430a82defaa4b9be0deQP442rCI07TKboZj[] = {
/* columns rows colors chars-per-pixel */
"43 50 193 2 ",
"   c #84357D",
".  c #0F0B00",
"X  c #100B00",
"o  c #181301",
"O  c #28090A",
"+  c #360C03",
"@  c #390D06",
"#  c #360C0E",
"$  c #3A0E0B",
"%  c #3D120E",
"&  c #381A06",
"*  c #3F1311",
"=  c #3C1919",
"-  c #241C01",
";  c #3E1B38",
":  c #3E2E35",
">  c #441A0D",
",  c #4A1E0E",
"<  c #42160E",
"1  c #411515",
"2  c #4A1F10",
"3  c #44181B",
"4  c #451916",
"5  c #4E230E",
"6  c #51260D",
"7  c #5A2C08",
"8  c #5D310E",
"9  c #4C2217",
"0  c #4A251B",
"q  c #522513",
"w  c #62350B",
"e  c #65390C",
"r  c #6B3E0E",
"t  c #603303",
"y  c #4A1D25",
"u  c #4F162A",
"i  c #4A1D2A",
"p  c #471923",
"a  c #50132A",
"s  c #541436",
"d  c #422225",
"f  c #442229",
"g  c #4E212C",
"h  c #422B32",
"j  c #4B2833",
"k  c #522433",
"l  c #57283C",
"z  c #57283C",
"x  c #45303A",
"c  c #6F3F2B",
"v  c #544204",
"b  c #6E4109",
"n  c #72440D",
"m  c #784B0E",
"M  c #744906",
"N  c #7F6406",
"B  c #72422E",
"V  c #7E602F",
"C  c #4B1D40",
"Z  c #6D154E",
"A  c #4F2F47",
"S  c #5E2E4C",
"D  c #582A47",
"F  c #473947",
"G  c #5B334D",
"H  c #602F4C",
"J  c #63314E",
"K  c #653354",
"L  c #67375B",
"P  c #673567",
"I  c #6D3B65",
"U  c #6A386D",
"Y  c #703E6A",
"T  c #632B61",
"R  c #474A58",
"E  c #554E57",
"W  c #4D4D62",
"Q  c #5B4C6B",
"!  c #5A506D",
"~  c #4B597A",
"^  c #4E5C73",
"/  c #515770",
"(  c #555B79",
")  c #604563",
"_  c #76446D",
"`  c #774577",
"'  c #4E6077",
"]  c #576077",
"[  c #83540E",
"{  c #8B5B0D",
"}  c #875407",
"|  c #8D6F07",
" . c #836505",
".. c #99680A",
"X. c #967608",
"o. c #9A7609",
"O. c #AA7A0E",
"+. c #B07C08",
"@. c #B67F03",
"#. c #A35A27",
"$. c #946827",
"%. c #881764",
"&. c #AE8909",
"*. c #A38108",
"=. c #B6860A",
"-. c #C18E0E",
";. c #C19007",
":. c #C5930D",
">. c #C7990D",
",. c #D09C0E",
"<. c #C49112",
"1. c #D6A30C",
"2. c #DDAA0C",
"3. c #D9A90D",
"4. c #CAA40A",
"5. c #E2AD0E",
"6. c #E4B30E",
"7. c #EBB60E",
"8. c #EEBB0E",
"9. c #E7B90E",
"0. c #F3BD0E",
"q. c #F5C10E",
"w. c #FAC50E",
"e. c #FFCB0E",
"r. c #FFD20E",
"t. c #FFDA0E",
"y. c #7A4686",
"u. c #84357D",
"i. c #78459A",
"p. c #744E8D",
"a. c #556787",
"s. c #556A8B",
"d. c #566B96",
"f. c #587197",
"g. c #7D4BA8",
"h. c #577AA0",
"j. c #587AA6",
"k. c #6C65A8",
"l. c #7879CE",
"z. c #A118A8",
"x. c #A919B3",
"c. c #B116BB",
"v. c #9332AE",
"b. c #8E34B1",
"n. c #9A34B8",
"m. c #84357D",
"M. c #84357D",
"N. c #85528F",
"B. c #84357D",
"V. c #84357D",
"C. c #885293",
"Z. c #84357D",
"A. c #84357D",
"S. c #84357D",
"D. c #84357D",
"F. c #8050B0",
"G. c #8B55B3",
"H. c #84357D",
"J. c #84357D",
"K. c #84357D",
"L. c #9962A3",
"P. c #84357D",
"I. c #84357D",
"U. c #84357D",
"Y. c #A63AD0",
"T. c #C711D3",
"R. c #DA17F8",
"E. c #D725FF",
"W. c #8F62D8",
"Q. c #84357D",
"!. c #84357D",
"~. c #84357D",
"^. c #84357D",
"/. c #84357D",
"(. c #84357D",
"). c #AF44E6",
"_. c #9B65EB",
"`. c #9D69F3",
"'. c #84357D",
"]. c #C244FF",
"[. c #5F8ABA",
"{. c #5C83B3",
"}. c #6386BC",
"|. c #5F8FC6",
" X c #648DC3",
".X c #6293C8",
"XX c #649BD3",
"oX c #6998D8",
"OX c #7A86DE",
"+X c #65A0DB",
"@X c #66A5E0",
"#X c #67ADEA",
"$X c #8289ED",
/* pixels */
"                                                                                      ",
"                                    Q.A.A.S.S.S.S.S.S.S.S.S.S.A.K.                    ",
"                                  '.I 1 3 3 3 3 3 3 3 3 3 3 3 1 z J.                  ",
"                            (.m.Y I i + @ @ @ @ @ @ @ @ @ @ @ + 1 J S.                ",
"                            S.g + % % % % % % % % % % % % % % % % @ S Q.              ",
"                          m.g * $ % % % % % % % % % % % % % % % % % 1 l D.            ",
"                      /.B.z + % % % % % % % % % % % % % % % % % % % @ % L K.          ",
"                      S.y % % % % % % % % % % % % % % % % % % % % % % % % D ~.        ",
"                      V.1 + % % $ # $ % # $ % % % % % % % % % % % % % % + k ~.        ",
"                      A.1 @ % % 5 8 , > 8 6 % % % % % % % % % % % % % % @ g S.        ",
"                      A.1 @ % % [ :.n w -...% $ % % % % % % % % % % % % % 1 g m.      ",
"                      !._ g $ # ..9.m e 6.1.[ 6 $ % % % % % % % % % % % % % + I       ",
"                          I $ > ..7.[ n 5.r.5.n # % % % % % % % % % % % % % $ I       ",
"                          I 6 ..3.q.>.:.0.r.8.m # % $ # # $ % % % % % % % % $ I       ",
"                          P e 2.r.e.e.e.e.e.7.m # % 5 w e 7 < % % % % % % % $ I       ",
"                          P e 2.r.e.e.e.e.e.7.m # % { 1.5.O.5 # % % % % % % $ I       ",
"                          P w 2.3.X.| &.8.r.7.m , [ :.e.t.>.6 # % % % % % % $ I       ",
"                          I n 5.*.- . v 2.r.7.n r 2.e.e.w.=.5 # % % % % % % $ I       ",
"                      !._ $.:.0.1.X.| &.8.r.7.r r 9.t.q.O.r > $ % % % % % % $ I       ",
"                      Z.9 =.r.e.e.e.e.e.e.e.8.{ { 7.q.:.e # % % % % % % % % @ I       ",
"                      Z.9 =.r.e.e.e.e.e.e.e.w.5.6.w.=.8 < $ % % % % % % % % @ I       ",
"                      B.4 M X.X.>.w.e.e.e.e.e.r.8.=.n $ $ % % % % % % @ @ 3 K S.      ",
"                      S.y O X o N q.e.e.e.e.e.e.,.8 % % % % % % % % * 3 % k J.        ",
"                      /.B.; &  .4.e.r.e.e.e.e.r.:., # % % % + % % + l M.D g !.        ",
"                          y.B <.2.1.1.1.1.1.2.q.1.n , % $ 3 k p * g u.  N.L ^.        ",
"                            L.c t w w w w 8 n ,.w.2.{ % + S H.I y B.      ^.          ",
"                            (.y.P U U U U C 2 ;.t.r.o.3 S V.  K.u./.                  ",
"                                          y.q =.w.0...g K.                            ",
"                                          N.4 b { } 7 g I.                            ",
"                                        ^._ * @ = h = y C.'.                          ",
"                                      ~.K 3 % @ x h.W 1 y `                           ",
"                                    Q.p.W R R W s.XX( = : ! V.^.                      ",
"                                    I A }.oXoX.XXX+X/ f f.f.j M.                      ",
"                                    J s Y.].).p.a.XX^ u n.v.p u.                      ",
"                                  Q.) T U.E.U.Z F  X' u x.z.u u.                      ",
"                                S.G a. XOX$Xl.A F  X( f k.k.f m.                      ",
"                                M.p i.`._.`.W.D : ~ F i F.g.i m.                      ",
"                                N.u z.R.R.R.T.Z > 9 & a c.x.u u.                      ",
"                                N.i i.`._.b.%.#.=.+.M i F.g.i m.                      ",
"                                M.d f.#X@X~ 5 ;.r.e...d j.h.f m.                      ",
"                                M.d f.#X@X~ 5 ;.r.e...d j.h.f m.                      ",
"                                P.` ( h.XXj.E $.=.+.V / .Xh.d m.                      ",
"                                  '.I F [.+X XE 2 0 ] XX+Xf.j M.                      ",
"                                    P.u.Q h.@X{.d.d.|.+Xa.Q V.^.                      ",
"                                      P.g R {.[.[.[.}.h.h J                           ",
"                                      Q.g = h x x x x h % K                           ",
"                                      /.m.z @ @ @ @ + 1 H V.                          ",
"                                          ` * $ % % @ i K.                            ",
"                                      /.u.l * % % % @ g I.                            ",
"                                      Q.g + % % % % @ g J.                            "
};
