/* XPM */
static char *_6c4c8a24a1a42cee909da2ede8a08b1jZ8lvxcAdt3mukjF[] = {
/* columns rows colors chars-per-pixel */
"43 50 158 2 ",
"   c #84357D",
".  c #120E01",
"X  c #1B1501",
"o  c #2E040E",
"O  c #350705",
"+  c #390500",
"@  c #3B0B04",
"#  c #30060E",
"$  c #350B0E",
"%  c #3A0E0D",
"&  c #221B02",
"*  c #3D120E",
"=  c #3E1512",
"-  c #3F1B1A",
";  c #302502",
":  c #3C211D",
">  c #3F2525",
",  c #40150E",
"<  c #441A0E",
"1  c #4A1E0E",
"2  c #401E1F",
"3  c #481C1F",
"4  c #4C210E",
"5  c #532307",
"6  c #51250E",
"7  c #56290E",
"8  c #5A2C0D",
"9  c #5D300E",
"0  c #472117",
"q  c #45231E",
"w  c #61340E",
"e  c #663A0E",
"r  c #6A3E0E",
"t  c #491422",
"y  c #421D22",
"u  c #5A183F",
"i  c #412023",
"p  c #42252A",
"a  c #43292F",
"s  c #452D35",
"d  c #462F39",
"f  c #46343F",
"g  c #594505",
"h  c #6E400E",
"j  c #73460E",
"k  c #7C4D0E",
"l  c #77490E",
"z  c #6E5706",
"x  c #7F510E",
"c  c #4E2E44",
"v  c #473642",
"b  c #493C4B",
"n  c #4F3B53",
"m  c #662E66",
"M  c #464352",
"N  c #4C475A",
"B  c #4A4D5E",
"V  c #4B4456",
"C  c #564A6B",
"Z  c #4F526A",
"A  c #4D5778",
"S  c #4F5D75",
"D  c #535E7B",
"F  c #50617B",
"G  c #845303",
"H  c #84550E",
"J  c #8C5D0E",
"K  c #8D6F07",
"L  c #866907",
"P  c #9A6607",
"I  c #93630E",
"U  c #9D6D0E",
"Y  c #8F7107",
"T  c #957508",
"R  c #A4730C",
"E  c #AC7B0E",
"W  c #A8770E",
"Q  c #AC8809",
"!  c #B4820E",
"~  c #B18B09",
"^  c #BE8D0E",
"/  c #B8870E",
"(  c #BC930B",
")  c #C08E0E",
"_  c #C8960E",
"`  c #C69C0A",
"'  c #CB9C0D",
"]  c #C4910E",
"[  c #CDA10C",
"{  c #D6A30E",
"}  c #DAA70E",
"|  c #DDAB0E",
" . c #DFB40E",
".. c #E3AF0E",
"X. c #E5B50D",
"o. c #EAB50E",
"O. c #EEBB0D",
"+. c #F2BE0D",
"@. c #F5C20E",
"#. c #FAC50E",
"$. c #FFCE0E",
"%. c #FFCA0E",
"&. c #FFD00E",
"*. c #FFD20D",
"=. c #FFDB0E",
"-. c #79449F",
";. c #78489B",
":. c #685B97",
">. c #546484",
",. c #556789",
"<. c #546B8B",
"1. c #526A86",
"2. c #587196",
"3. c #557198",
"4. c #59739A",
"5. c #7C48A1",
"6. c #5B7BA5",
"7. c #597CA4",
"8. c #657FB9",
"9. c #891B86",
"0. c #9B1BA1",
"q. c #A315A6",
"w. c #AE13B4",
"e. c #B926D8",
"r. c #A73AD2",
"t. c #B83FF0",
"y. c #B739E9",
"u. c #D718F5",
"i. c #D818F6",
"p. c #DB18FB",
"a. c #CD25F3",
"s. c #D226FB",
"d. c #B943F5",
"f. c #BD42FA",
"g. c #9767E9",
"h. c #9C62EB",
"j. c #9969EC",
"k. c #9E69F5",
"l. c #5780A6",
"z. c #5E86B6",
"x. c #5F8ABB",
"c. c #618DC2",
"v. c #6395CB",
"b. c #7A87DE",
"n. c #6B93D5",
"m. c #659CD4",
"M. c #6C95D9",
"N. c #6D9ADF",
"B. c #61A2D6",
"V. c #65A6DF",
"C. c #7F85E4",
"Z. c #6E9BE2",
"A. c #66A6E1",
"S. c #68A7E5",
"D. c #66A9E4",
"F. c #68A9E7",
"G. c #69ACEB",
"H. c #8187E9",
/* pixels */
"                                                                                      ",
"                                                                                      ",
"                                    * * * * * * * * * * * * * * *                     ",
"                                  * * * * * * * * * * * * * * * * *                   ",
"                                * * * * * * * * * * * * * * * * * * *                 ",
"                              * * * * * * * * * * * * * * * * * * * * *               ",
"                            * * * * * * * * * * * * * * * * * * * * * * *             ",
"                          * * * * * * * * * * * * * * * * * * * * * * * * *           ",
"                          * * * * * % $ * * * * * * % $ * * * * * * * * * * *         ",
"                          * * * * * 7 8 , % * * * * 6 9 1 * * * * * * * * * * *       ",
"                        * * * * $ < W ! 6 $ * * % * J ] r % * * % * * * * * * *       ",
"                        * * * * 8 I | X.U 9 % $ 4 H ' X.j o % e k 4 $ * * * * *       ",
"                        * * % * J O.%.%.@.R 1 * l | $.o.k * 1 W } j * * * * * *       ",
"                        * * % * I #.$.%.$.| ! E _ @.&.@._ E ! | @._ H < $ $ * * *     ",
"                      * * * % * I @.$.%.%.%.%.%.%.%.%.%.$.$.$.%.%.$.^ 4 4 9 < * *     ",
"                    * * * * % * I @.$.%.%.%.%.%.%.%.%.%.$.$.$.%.%.$./ 4 I ^ w $ *     ",
"                    * * * * % $ I O.( Y T ` #.%.%.%.%.+.~ K T [ %.$.{ I [  .r $ *     ",
"                    * * * * * < U X.z . X L #.$.%.%.$.X.g . & T %.$.#.+.#.{ e $ *     ",
"                    * * * % 7 U } +.( Y T ` #.$.&.&.$.+.~ K T [ %.%.$.$.( k 4 % *     ",
"                    * * * $ e | &.%.%.%.%.%.#.| ` ' X.%.%.%.%.%.%.%.@.{ k % % * *     ",
"                    * * * $ e | &.%.%.%.%.$.o.z & ; T #.$.%.%.%.$.$._ h < * * * *     ",
"                    * * * % 7 U } %.&.$.%.$.O.K g g Q #.%.$.%.{ ! ! H , $ * * * *     ",
"                    * * * * * < I O.@.@.#.%.#.@.+.+.@.%.%.%.+.I 1 < < * * * * * *     ",
"                    * * * * % $ 8 H H W O.&.&.&.&.$.%.%.&.| I 8 $ $ % * * * * * *     ",
"                    * * * * * * * % $ w ) | { { ..#.%.#.o.W 1 $ * * * * * * * * *     ",
"                      * *     * * * % < 9 w w 9 J o.&.o.J 6 * % * * * * *   * *       ",
"                        *     * * * * % $ # # o h X.=.X.h # * * * * * *               ",
"                                              $ h | %.| h $           *               ",
"                                            @ % 6 x J x 6 % @ @                       ",
"                                          a s - % % % % % - s y *                     ",
"                                  % * % * Z 7.v @ % % % @ v 7.B * % * %               ",
"                                v N > - M 7.B.<.B B B B B <.B.l.M - p N v             ",
"                              - Z z.n c 8.Z.N.M.n.n.n.n.n.M.N.Z.8.d b z.Z -           ",
"                            s D F C 9.w.y.d.t.d.d.d.d.d.d.d.t.f.r.u : B >.D s         ",
"                          @ f c.1.t 0.s.a.a.a.a.a.a.a.a.a.a.a.s.e.m : = <.c.f @       ",
"                          @ f c.,.y :.H.C.C.C.C.C.C.C.C.C.C.C.H.b.c.S y ,.c.f @       ",
"                          @ p A M y ;.j.g.g.g.g.g.g.g.g.g.g.g.g.j.k.5.y M A p @       ",
"                          * = 0 < t q.p.i.u.u.u.u.u.u.u.u.u.u.u.i.p.q.t < 0 = *       ",
"                          $ 8 R G 3 -.h.h.h.h.h.h.h.h.h.h.h.h.h.h.h.-.3 G R 8 $       ",
"                          $ w ^ P q 3.D.A.V.V.A.A.A.A.A.A.V.V.V.A.D.3.q P ^ w $       ",
"                          % < 9 5 2 3.D.A.V.A.A.A.A.A.A.A.V.V.V.A.D.3.2 5 9 < %       ",
"                            % $ O 2 2.S.A.A.m.6.,.,.,.2.v.A.A.A.A.S.2.2 O $ %         ",
"                                  2 2.S.A.F.v.V = - = s 6.F.A.A.A.S.2.2               ",
"                                  y 4.G.F.G.m.b +   + i 6.G.F.F.F.G.4.y               ",
"                                  - D x.z.x.6.v @     i ,.x.z.z.z.x.D -               ",
"                                  = p s s d s - *     = p d s s s s p =               ",
"                                  * @ @ @ @ @ * *     * % @ @ @ @ @ @ *               ",
"                                        * * * * *     * * * * * *                     ",
"                                      * * * * * *     * * * * * * *                   ",
"                                    * * * * * * *     * * * * * * * *                 "
};
