/* XPM */
static char *_12c018d4ef0446cc35fddfdd6faa82dZJ50LxQWL7yk1beS[] = {
/* columns rows colors chars-per-pixel */
"50 50 80 1 ",
"  c #612C61",
". c #642D64",
"X c #5F2B5F",
"o c #431E43",
"O c #190B19",
"+ c #0C050C",
"@ c #2D142D",
"# c #552655",
"$ c #632D63",
"% c #622C62",
"& c #602B60",
"* c #421E42",
"= c #2E152E",
"- c #582858",
"; c #662E66",
": c #1A0B1A",
"> c #0D060D",
", c #542654",
"< c #4C224C",
"1 c #210F21",
"2 c #401D40",
"3 c #4E234E",
"4 c #592859",
"5 c #632C63",
"6 c #672E67",
"7 c #693069",
"8 c #5B295B",
"9 c #301630",
"0 c #451F45",
"q c #672F67",
"w c #2C142C",
"e c #180B18",
"r c #421D42",
"t c #5E2A5E",
"y c #441E44",
"u c #3B1A3B",
"i c #1F0E1F",
"p c #080308",
"a c #110711",
"s c #441F44",
"d c #160A16",
"f c #0B050B",
"g c #030103",
"h c #060206",
"j c #1A0C1A",
"k c #1B0C1B",
"l c #1C0C1C",
"z c #020102",
"x c #040104",
"c c #090409",
"v c #060306",
"b c black",
"n c #301530",
"m c #2F152F",
"M c #2E142E",
"N c #271227",
"B c #150915",
"V c #050205",
"C c #572757",
"Z c #4B224B",
"A c #291229",
"S c #0A040A",
"D c #652E65",
"F c #0D050D",
"G c #461F46",
"H c #682F68",
"J c #582758",
"K c #562756",
"L c #331733",
"P c #1E0D1E",
"I c #3E1C3E",
"U c #5D2A5D",
"Y c #341734",
"T c #070307",
"R c #361836",
"E c #472047",
"W c #482148",
"Q c #200E20",
"! c #010001",
"~ c white",
/* pixels */
"       .XoO+@#$%                .XoO+@#$%         ",
"       .XoO+@#.% &              .XoO+@#.% &       ",
"       .X*O+=-;$ &&             .X*O+=-;$ &&      ",
"       .Xo:>@,%%&               .Xo:>@,%%&        ",
"       $&<=1@234&               $&<=1@234&        ",
"        &432@1=<&$               &432@1=<&$       ",
"         %5,@>:oX.                %5,@>:oX.       ",
".........6789>O05q................6789>O05q.......",
"XXXXXXXXX %,w+ert5XXXXXXXXXXXXXXXX %,w+ert5XXXXXXX",
"oooooooooy0uipa=r0o**oyssoo*ooooooy0uipa=r0o**oyss",
"OOOOOOOOOOOdfghae:OOOOjkk:OOOOOOOOOOdfghae:OOOOjkl",
"++++++++++++fff++++++fhzxc+++++++++++fff++++++fvzb",
"@@@@@@@@@@@@=nmM@@@M=NBVfiw=@@@@@@@@@=nmM@@@M=NBVb",
"###################CCZNfdu,-################CCZASb",
"DD..$$$$$$$$$$$$$$$D;C=FjG.H.$$$$$$$$$$$$$$$D;Jnfb",
"DD.$%%%%%%%%%%%%%%%.DC@+jG.q$%%%%%%%%%%%%%%%.DCmfb",
"#C8X               %$KLdPIKUX               %$KYBT",
"=RE8%               %8WRMMRW8%               %8ER=",
"TBYK$%               XUKIPdLK$%               X8C#",
"bfmCD.%%%%%%%%%%%%%%%$q.Gj+@CD.%%%%%%%%%%%%%%%$.DD",
"bfnJ;D$$$$$$$$$$$$$$$.H.GjF=C;D$$$$$$$$$$$$$$$..DD",
"bSAZCC################-,udfNZCC###################",
"bVBN=M@@@Mmn=@@@@@@@@@=wifVBN=M@@@Mmn=@@@@@@@@@@@@",
"bzvf++++++fff+++++++++++cxzhf++++++fff++++++++++++",
"lkjOOOO:eahgfdOOOOOOOOOO:kkjOOOO:eahgfdOOOOOOOOOOO",
"ssyo**o0r=apiu0yoooooo*oossyo**o0r=apiu0yooooooooo",
"XXXXXXX5tre+w,% XXXXXXXXXXXXXXXX5tre+w,% XXXXXXXXX",
".......q50O>9876................q50O>9876.........",
"       .Xo:>@,5%                .Xo:>@,5%         ",
"       $&<=1@234&               $&<=1@234&        ",
"        &432@1=<&$               &432@1=<&$       ",
"         %5,@>:oX.                %5,@>:oX.       ",
".........6789>O05q................6789>O05q.......",
"XXXXXXXXX %,w+ert5XXXXXXXXXXXXXXXX %,w+ert5XXXXXXX",
"oooooooooy0uipa=r0o**oyssoo*ooooooy0uipa=r0o**oyss",
"OOOOOOOOOOOdfghae:OOOOjkk:OOOOOOOOOOdfghae:OOOOjkl",
"++++++++++++fff++++++fhzxc+++++++++++fff++++++fvzb",
"@@@@@@@@@@@@=nmM@@@M=NBVfiw=@@@@@@@@@=nmM@@@M=NBVb",
"###################CCZNfdu,-################CCZASb",
"DD..$$$$$$$$$$$$$$$D;C=FjG.H.$$$$$$$$$$$$$$$D;Jnfb",
"DD.$%%%%%%%%%%%%%%%.DC@+jG.q$%%%%%%%%%%%%%%%.DCmfb",
"#C8X               %$KLdPIKUX               %$KYBT",
"=RE8%               %8WRMMRW8%               %8ER=",
"TBYK$%               XUKIPdLK$%               X8C#",
"bfmCD.%%%%%%%%%%%%%%%$q.Gj+@CD.%%%%%%%%%%%%%%%$.DD",
"bfnJ;D$$$$$$$$$$$$$$$.H.GjF=C;D$$$$$$$$$$$$$$$..DD",
"bSAZJC################-,udfNZJC###################",
"bVdAnm===============m9MQ+hBAnm===================",
"b!VSffffffffffffffffffffTz!VSfffffffffffffffffffff",
"bbbbbbbbbbbbbbbbbbbbbbbbbbbbbbbbbbbbbbbbbbbbbbbbbb"
};
