/* XPM */
static char *f39d1a38cd0f4859ae91d99539a9aa2dbSdG218ggzkhjPJ1[] = {
/* columns rows colors chars-per-pixel */
"48 50 164 2 ",
"   c #84357D",
".  c black",
"X  c #010101",
"o  c gray1",
"O  c #040404",
"+  c gray2",
"@  c #060606",
"#  c gray3",
"$  c #090909",
"%  c gray4",
"&  c #0E0E0E",
"*  c gray6",
"=  c #101010",
"-  c #131313",
";  c #151515",
":  c #161616",
">  c gray9",
",  c #181818",
"<  c #191919",
"1  c gray10",
"2  c #1B1B1B",
"3  c gray11",
"4  c #1D1D1D",
"5  c #1E1E1E",
"6  c gray12",
"7  c #202020",
"8  c #222222",
"9  c #252525",
"0  c gray15",
"q  c #272727",
"w  c #282828",
"e  c gray16",
"r  c #2A2A2A",
"t  c gray17",
"y  c #2C2C2C",
"u  c #2D2D2D",
"i  c #2F2F2F",
"p  c #313131",
"a  c #323232",
"s  c gray20",
"d  c gray21",
"f  c #373737",
"g  c gray22",
"h  c #3A3A3A",
"j  c gray23",
"k  c #3C3C3C",
"l  c #3E3E3E",
"z  c #3F3F3F",
"x  c #414141",
"c  c #434343",
"v  c #444444",
"b  c gray27",
"n  c #4B4B4B",
"m  c #4C4C4C",
"M  c gray30",
"N  c gray31",
"B  c #505050",
"V  c #515151",
"C  c #535353",
"Z  c gray33",
"A  c #555555",
"S  c #565656",
"D  c gray34",
"F  c #585858",
"G  c gray35",
"H  c #5F5F5F",
"J  c #606060",
"K  c gray38",
"L  c #626262",
"P  c gray39",
"I  c #656565",
"U  c #676767",
"Y  c #686868",
"T  c gray42",
"R  c #717171",
"E  c gray46",
"W  c #777777",
"Q  c gray47",
"!  c #797979",
"~  c gray48",
"^  c #7B7B7B",
"/  c #7C7C7C",
"(  c #808080",
")  c gray51",
"_  c #838383",
"`  c #868686",
"'  c #898989",
"]  c #8B8B8B",
"[  c gray55",
"{  c #8D8D8D",
"}  c gray56",
"|  c #909090",
" . c gray57",
".. c #929292",
"X. c gray59",
"o. c #979797",
"O. c #989898",
"+. c gray60",
"@. c #9A9A9A",
"#. c #9B9B9B",
"$. c #9D9D9D",
"%. c #9F9F9F",
"&. c #A0A0A0",
"*. c #A4A4A4",
"=. c gray65",
"-. c gray66",
";. c #A9A9A9",
":. c #ACACAC",
">. c gray68",
",. c #AFAFAF",
"<. c #B2B2B2",
"1. c #B7B7B7",
"2. c #B9B9B9",
"3. c #BBBBBB",
"4. c #BCBCBC",
"5. c gray74",
"6. c gray",
"7. c gray75",
"8. c #C0C0C0",
"9. c gray76",
"0. c #C3C3C3",
"q. c gray77",
"w. c #C5C5C5",
"e. c #C6C6C6",
"r. c gray78",
"t. c #CBCBCB",
"y. c #CDCDCD",
"u. c #CECECE",
"i. c gray81",
"p. c gray82",
"a. c gray83",
"s. c #D5D5D5",
"d. c #D7D7D7",
"f. c gray86",
"g. c gainsboro",
"h. c gray87",
"j. c #DFDFDF",
"k. c gray88",
"l. c #E1E1E1",
"z. c #E2E2E2",
"x. c #E4E4E4",
"c. c gray90",
"v. c #E6E6E6",
"b. c #E7E7E7",
"n. c #E9E9E9",
"m. c #EAEAEA",
"M. c gray92",
"N. c gray93",
"B. c #EEEEEE",
"V. c #EFEFEF",
"C. c gray95",
"Z. c #F3F3F3",
"A. c #F4F4F4",
"S. c gray96",
"D. c #F6F6F6",
"F. c gray97",
"G. c #F8F8F8",
"H. c #F9F9F9",
"J. c #FFE500",
"K. c #FBFBFB",
"L. c #008000",
"P. c #FDFDFD",
"I. c #FEFEFE",
"U. c white",
/* pixels */
"                                                                                                ",
"                            J.J.J.J.J.                  J.J.J.J.J.                              ",
"                      J.        J.J.J.J.J.J.J.    J.J.J.J.J.J.J.      J.                        ",
"                    J.J.J.J.                                        J.J.J.                      ",
"                  J.J.J.J.J.                                      J.J.J.J.J.                    ",
"                J.J.J.J.J.                                        J.J.J.J.J.J.                  ",
"                  J.J.            U.U.U.              U.U.U.            J.J.                    ",
"                              U.U.v.k.Z.U.  U.U.U.  U.N.k.M.U.U.                                ",
"      J.J.J.J.J.            U.U.N.j < X.G.G.A.U.A.U.A.! : A A.U.U.            J.J.J.J.          ",
"    J.J.J.J.J.J.J.        U.U.M.j O $.R ) 5.M v.z d.I [ ) % M G.U.U.        J.J.J.J.J.J.        ",
"  J.J.J.J.J.J.J.J.      U.e.K Z.5.8 1.k.' w w j.= a #.M...a e.M.A j.U.      J.J.J.J.J.J.J.J.    ",
"J.J.J.J.              U.2.f w G.U.9 f F i 9 <.Z.*.= j F w b U.v.= x y.                J.J.J.J.  ",
"J.J.J.J.              U.e.B i U.U.&.) ! ! ;.U.U.U.#.! ! ) ,.U.N.< H d.                J.J.J.J.  ",
"J.J.J.J.J.J.J.J.      U.U.<.: #.#.*.;.k.U.U.U.U.U.U.U.d.;.*.#...& d.U.        J.J.J.J.J.J.J.J.  ",
"J.J.J.J.J.J.J.J.J.    U.U.e.a X a O X I 5.2.2.5.2.2.5.M X & i X z f.U.      J.J.J.J.J.J.J.J.J.  ",
"    J.J.J.J.J.J.J.      U.U.y.5 k.a < = & 9 5 O 8 9 % : : B p.5 v.U.U.      J.J.J.J.J.J.        ",
"      J.J.J.J.J.J.        U.y.5 p.w ,.Y K Z.e.5 j.Z.x ' ' b 9.5 v.U.        J.J.J.J.J.          ",
"                          U.y.% < O 1.Y K U.t.5 v.U.b ..X.% < < v.U.                            ",
"                          U.y.O X X 9 : : f w O a f & 5 5 X X : v.U.                            ",
"                          U.y.X X [ a X X X X X X X X X n / X & v.U.                            ",
"                          U.M.) = j.B M M w R = ! < K j ! 9.: ..A.U.                            ",
"                          U.U.N.: ! w $.#.M j.8 N.a 9.! z K w U.U.U.                            ",
"                          U.U.N.A X X Y K i [ = #.5 ! M < b Y G.U.U.                            ",
"                            U.U.G.A i i i i w i w i w i ' U.U.U.U.                              ",
"                    J.        U.U.G.A.G.A.A.A.A.A.A.A.G.G.U.U.U.      J.J.                      ",
"                J.J.J.          U.U.U.U.U.U.U.U.U.U.U.U.U.U.U.        J.J.J.J.                  ",
"              J.J.J.J.              U.U.U.U.U.U.U.U.U.U.U.            J.J.J.J.J.                ",
"            J.J.J.J.J.J.J.                                        J.J.J.J.J.J.J.J.              ",
"            J.J.J.J.J.J.J.J.J.J.J.                          J.J.J.J.J.2.J.J.J.J.J.              ",
"            J.J.J.J.J.J.J.J.J.J.J.J.                      J.J.J.J.J.J.J.J.J.J.J.J.              ",
"            J.J.J.J.J.J.J.J.J.J.J.J.J.J.J.J.J.  J.J.J.J.J.J.J.J.J.J.J.J.J.J.J.J.J.              ",
"            J.J.J.J.J.J.J.J.J.J.J.J.J.                  J.J.J.J.J.J.J.J.J.J.J.J.J.              ",
"                J.J.J.J.J.J.J.                                  J.J.J.J.J.J.J.                  ",
"                                                                                                ",
"                                          L.L.                                                  ",
"                                        L.L.L.L.                                                ",
"                                      L.L.L.L.                                                  ",
"                                      L.L.L.L.                                                  ",
"                                        L.L.L.L.                                                ",
"                                          L.L.L.L.                                              ",
"                                            L.L.L.                                              ",
"                                              L.L.L.                                            ",
"                                              L.L.L.                                            ",
"                                            L.L.L.L.L.                                          ",
"                                L.        L.L.L.L.L.L.      L.                                  ",
"                                L.      L.L.L.L.L.L.L.      L.                                  ",
"                                L.      L.L.L.L.L.L.L.    L.                                    ",
"                                  L.      L.L.L.L.L.    L.L.                                    ",
"                                    L.                L.                                        ",
"                                      L.L.L.L.L.L.L.L.                                          "
};
