/* XPM */
static char *_97de00a0d0b43dffb6e3d6e4ade3a59DQgfVkYA2Rmk2niK[] = {
/* columns rows colors chars-per-pixel */
"38 50 137 2 ",
"   c #84357D",
".  c black",
"X  c #020202",
"o  c #040404",
"O  c gray2",
"+  c #070707",
"@  c gray3",
"#  c #090909",
"$  c gray4",
"%  c #0E0E0E",
"&  c gray7",
"*  c #131313",
"=  c gray8",
"-  c #151515",
";  c #161616",
":  c gray9",
">  c #181818",
",  c #1B1B1B",
"<  c gray11",
"1  c gray12",
"2  c gray13",
"3  c #222222",
"4  c #252525",
"5  c gray16",
"6  c gray17",
"7  c #2C2C2C",
"8  c #2D2D2D",
"9  c gray18",
"0  c #2F2F2F",
"q  c #313131",
"w  c #323232",
"e  c #343434",
"r  c #353535",
"t  c gray21",
"y  c #373737",
"u  c gray22",
"i  c #3A3A3A",
"p  c #3C3C3C",
"a  c gray24",
"s  c #414141",
"d  c #434343",
"f  c #444444",
"g  c gray27",
"h  c gray28",
"j  c #484848",
"k  c #494949",
"l  c #4B4B4B",
"z  c #515151",
"x  c gray34",
"c  c #585858",
"v  c #5A5A5A",
"b  c #5B5B5B",
"n  c gray36",
"m  c #5D5D5D",
"M  c gray37",
"N  c #5F5F5F",
"B  c gray39",
"V  c #676767",
"C  c gray42",
"Z  c #6C6C6C",
"A  c gray44",
"S  c #717171",
"D  c gray45",
"F  c #777777",
"G  c #797979",
"H  c #7B7B7B",
"J  c gray49",
"K  c #808080",
"L  c gray51",
"P  c gray52",
"I  c gray53",
"U  c #888888",
"Y  c gray56",
"T  c #959595",
"R  c #9A9A9A",
"E  c #9B9B9B",
"W  c gray62",
"Q  c gray63",
"!  c #A2A2A2",
"~  c gray64",
"^  c #A4A4A4",
"/  c gray65",
"(  c #A7A7A7",
")  c gray66",
"_  c gray67",
"`  c gray68",
"'  c #AEAEAE",
"]  c #AFAFAF",
"[  c gray69",
"{  c #B1B1B1",
"}  c #B2B2B2",
"|  c gray70",
" . c gray71",
".. c #B6B6B6",
"X. c #B7B7B7",
"o. c gray72",
"O. c #B9B9B9",
"+. c gray73",
"@. c #C1C1C1",
"#. c gray76",
"$. c gray77",
"%. c #C5C5C5",
"&. c gray78",
"*. c #CACACA",
"=. c #CECECE",
"-. c #D0D0D0",
";. c #D2D2D2",
":. c LightGray",
">. c gray83",
",. c #D8D8D8",
"<. c #DDDDDD",
"1. c gray87",
"2. c #DFDFDF",
"3. c gray88",
"4. c #E2E2E2",
"5. c #E4E4E4",
"6. c gray90",
"7. c #E6E6E6",
"8. c #E9E9E9",
"9. c gray92",
"0. c #ECECEC",
"q. c #EEEEEE",
"w. c #EFEFEF",
"e. c gray94",
"r. c #F1F1F1",
"t. c gray95",
"y. c #F3F3F3",
"u. c #F4F4F4",
"i. c gray96",
"p. c gray97",
"a. c #F8F8F8",
"s. c #F9F9F9",
"d. c gray98",
"f. c #FBFBFB",
"g. c gray99",
"h. c #FEFEFE",
"j. c white",
/* pixels */
"                                                                            ",
"                                              X X X X                       ",
"                                            u a a a a t                     ",
"                                      @ @ 3 O.9.9.9.9.O.3 @ @               ",
"                                    X H / ' y.g.g.g.g.y.' / H X             ",
"                                  4 b =.g.g.g.g.g.g.g.g.g.g.=.M 8           ",
"                                = b 9.g.g.g.g.g.g.g.g.g.g.g.g.9.k X         ",
"                              X J ;.g.g.g.g.g.g.g.g.g.g.g.g.g.y.g X         ",
"                            6 C *.g.g.g.g.g.g.g.g.g.g.g.g.g.g.p.E x         ",
"                          X t 6.g.g.g.g.g.g.g.g.g.g.g.g.g.g.g.g.g.E O       ",
"                          X t 6.g.g.g.g.g.g.g.g.g.g.g.g.g.g.g.g.g.E O       ",
"                        X M / y.g.g.g.g.g.g.g.g.g.g.g.g.g.g.g.g.g.;.I 8     ",
"                        X I g.g.g.0.%.#.#.*.y.g.g.g.1.#.#.#.>.g.g.g.9.u X   ",
"                        X I g.g.g.O.3 = = 8 *.g.g.g.K = = = b y.g.g.6.t X   ",
"                        X I g.g.g.{ @ X X = %.g.g.g.S X X X k y.g.g.6.t X   ",
"                        X I g.g.g.{ * a t < %.g.g.g.S * k 3 k y.g.g.6.t X   ",
"                        X I g.g.g.' > { E 3 #.g.g.g.Z t ,.b g y.g.g.6.t X   ",
"                        X I g.g.g.' < O./ 3 #.g.g.g.Z u 4.M d y.g.g.6.t X   ",
"                        X I g.g.g.' <  .! 3 #.g.g.g.Z u 1.M d y.g.g.6.u X   ",
"                        X I g.g.g.' <  .! 3 #.g.g.g.C t 4.M d y.g.g.6.u X   ",
"                        X I g.g.g.' <  .! < #.g.g.g.Z t 1.M d y.g.g.6.t X   ",
"                        X I g.g.g.{ = z g < %.g.g.g.S > B 6 k y.g.g.6.t X   ",
"                        X I g.g.g.{ @ X X = %.g.g.g.D X X X k y.g.g.6.t X   ",
"                        X I g.g.g. .= @ @ 3 %.g.g.g.H @ O O z y.g.g.6.t X   ",
"                        X I g.g.g.6.' ) ) { 0.g.g.g.;.) ) ) #.f.g.g.6.u X   ",
"                        X I g.g.g.g.g.g.g.g.g.g.g.g.g.g.g.g.g.g.g.g.6.u X   ",
"                        X I g.g.g.g.g.g.g.g.g.g.g.g.g.g.g.g.g.g.g.g.6.u X   ",
"                        X I g.g.g.g.g.g.g.g.g.g.g.g.g.g.g.g.g.g.g.g.6.t X   ",
"                        X I g.g.g.g.g.g.g.g.g.g.g.g.g.g.g.g.g.g.g.g.6.t X   ",
"                        X I g.g.g.g.g.g.g.g.g.g.g.g.g.g.g.g.g.g.g.g.6.t X   ",
"                        X I g.g.g.g.g.g.g.g.g.g.g.g.g.g.g.g.g.g.g.g.6.t X   ",
"                        X I g.g.g.g.g.g.g.g.g.g.g.g.g.g.g.g.g.g.g.g.6.t X   ",
"                        X I g.g.g.g.g.g.g.g.g.g.g.g.g.g.g.g.g.g.g.g.6.u X   ",
"                        X I g.g.g.g.g.g.g.g.g.g.g.g.g.g.g.g.g.g.g.g.6.u X   ",
"                        X I g.g.g.g.g.g.g.g.g.g.g.g.g.g.g.g.g.g.g.g.6.u X   ",
"                        X I g.g.g.g.g.g.g.g.g.g.g.g.g.g.g.g.g.g.g.g.6.u X   ",
"                        X I g.g.g.g.g.g.g.g.g.g.g.g.g.g.g.g.g.g.g.g.6.t X   ",
"                        X I g.g.g.g.g.g.g.g.g.g.g.g.g.g.g.g.g.g.g.g.6.u X   ",
"                        X I g.g.g.g.g.g.g.g.g.g.g.g.g.g.g.g.g.g.g.g.6.u X   ",
"                        X I g.g.g.g.g.g.g.g.g.g.g.g.g.g.g.g.g.g.g.g.6.u X   ",
"                        X I g.g.g.g.g.g.g.g.g.g.g.g.g.g.g.g.g.g.g.g.6.u X   ",
"                        X I g.g.g.g.g.g.g.g.g.g.g.g.g.g.g.g.g.g.g.g.6.u X   ",
"                        X I g.g.g.g.g.g.g.g.g.g.g.g.g.g.g.g.g.g.g.g.6.u X   ",
"                        X I g.g.g.g.g.f.f.g.g.g.g.g.f.f.g.g.g.g.g.g.6.u X   ",
"                        X U g.g.g.g.g.K Y g.g.g.g.g.E H p.g.g.g.g.g.9.u X   ",
"                        X C O.f.g.6.! w d ) 0.g.p. .z 4 E 1.g.g.g.1.E w     ",
"                            a >.9./ =     3 O.9.*.8     % T 9.9.9.T %       ",
"                              u a t         t a u         w a a a w         ",
"                                X             X             X X X           ",
"                                                                            "
};
