/* XPM */
static char *_f5f4838fb134ee8b4e1184cbf40b52d3GXX2Yz453wxogSa[] = {
/* columns rows colors chars-per-pixel */
"43 50 171 2 ",
"   c #84357D",
".  c #370C03",
"X  c #390E06",
"o  c #3A0F09",
"O  c #3D120E",
"+  c #39170C",
"@  c #3E1411",
"#  c #391812",
"$  c #3C2321",
"%  c #3F2E32",
"&  c #491C03",
"*  c #44160A",
"=  c #421B0F",
"-  c #411515",
";  c #431914",
":  c #43171A",
">  c #44181B",
",  c #4C1F18",
"<  c #592C0A",
"1  c #522607",
"2  c #5E310A",
"3  c #472116",
"4  c #502412",
"5  c #643505",
"6  c #451C22",
"7  c #4A1C26",
"8  c #4C1E29",
"9  c #521E2C",
"0  c #422125",
"q  c #4E212D",
"w  c #41292D",
"e  c #4D2027",
"r  c #432D34",
"t  c #452F38",
"y  c #4D2C3C",
"u  c #4A2435",
"i  c #522434",
"p  c #55263A",
"a  c #58283E",
"s  c #44343C",
"d  c #724204",
"f  c #74460B",
"g  c #5F1240",
"h  c #631347",
"j  c #4E2E44",
"k  c #522443",
"l  c #5A2B43",
"z  c #5F2F4B",
"x  c #433441",
"c  c #463E4B",
"v  c #473A46",
"b  c #573046",
"n  c #5F2E55",
"m  c #632D4D",
"M  c #61314F",
"N  c #643354",
"B  c #69365A",
"V  c #68375C",
"C  c #7F1472",
"Z  c #6D3B64",
"A  c #64326D",
"S  c #6E3C6A",
"D  c #673564",
"F  c #713E6C",
"G  c #703E67",
"H  c #643B71",
"J  c #4B4455",
"K  c #474657",
"L  c #4A4E62",
"P  c #484D69",
"I  c #554B69",
"U  c #4C5166",
"Y  c #4D526A",
"T  c #475463",
"R  c #4C5875",
"E  c #575979",
"W  c #624062",
"Q  c #72406E",
"!  c #614F73",
"~  c #754373",
"^  c #7A477B",
"/  c #8D5B05",
"(  c #875808",
")  c #905D06",
"_  c #98670A",
"`  c #A67406",
"'  c #B68309",
"]  c #C8950B",
"[  c #E8B30E",
"{  c #F1BC0E",
"}  c #7E4A83",
"|  c #764380",
" . c #7D528C",
".. c #526584",
"X. c #57678A",
"o. c #576E92",
"O. c #557295",
"+. c #587197",
"@. c #5A749D",
"#. c #57749A",
"$. c #5B7CA6",
"%. c #5B7DA8",
"&. c #7575C6",
"*. c #9B1095",
"=. c #8E2FA2",
"-. c #9F29B4",
";. c #814B86",
":. c #834E8A",
">. c #84508E",
",. c #84357D",
"<. c #84357D",
"1. c #84357D",
"2. c #90579C",
"3. c #8B55A0",
"4. c #84357D",
"5. c #8F59A8",
"6. c #84357D",
"7. c #84357D",
"8. c #84357D",
"9. c #84357D",
"0. c #84357D",
"q. c #B31FC8",
"w. c #B923D3",
"e. c #B83EEF",
"r. c #B93FF1",
"t. c #C117D4",
"y. c #D218ED",
"u. c #D718F5",
"i. c #DC18FC",
"p. c #CD25F3",
"a. c #D226FB",
"s. c #8C58CA",
"d. c #84357D",
"f. c #84357D",
"g. c #84357D",
"h. c #84357D",
"j. c #84357D",
"k. c #84357D",
"l. c #84357D",
"z. c #84357D",
"x. c #995FE2",
"c. c #B941F3",
"v. c #BC43F9",
"b. c #9767E9",
"n. c #9C61EA",
"m. c #9C6AF1",
"M. c #9F64F1",
"N. c #84357D",
"B. c #5D81AE",
"V. c #5D86B6",
"C. c #5F8ABA",
"Z. c #5B90BC",
"A. c #5F90C1",
"S. c #608EC1",
"D. c #6296CB",
"F. c #6192C7",
"G. c #748AD9",
"H. c #649CD4",
"J. c #659ED8",
"K. c #6C95D8",
"L. c #65A5DE",
"P. c #61A0D3",
"I. c #7F85E4",
"U. c #6E9BE1",
"Y. c #66A6E1",
"T. c #68A7E5",
"R. c #65ACE6",
"E. c #68A9E7",
"W. c #6AAEEE",
"Q. c #65B1EB",
"!. c #8188E9",
/* pixels */
"                                                                                      ",
"                                    d.4.4.6.6.6.6.6.6.6.6.6.6.4.0.                    ",
"                                  N.Z - : > > > > > > > > > > - p 9.                  ",
"                                d.G 7 . X X X X X X X X X X X . - M 6.                ",
"                              k.^ @ o O O O O O O O O O O O O O O X z d.              ",
"                            j.V 6 O O O O O O O O O O O O O O O O O - a 7.            ",
"                          f.^ > . O O O O O O O O O O O O O O O O O X O V 0.          ",
"                          G - O O O O O O O O O O O O O O O O O O O O O O l g.        ",
"                      f.F 8 X O O O O O O O O O O O O O O O O O O O O O . i g.        ",
"                      4.- X O O O O O O O O O O O O O O O O O O O O O O X q 6.        ",
"                      4.- X O O O O O O O O O O O O O O O O O O O O O O O - q ;.      ",
"                      6.: X O O O O O O O O O O O O O O O O O O O O O O O O . Z       ",
"                      <.: X O O O O O O O O O O O O O O O O O O O O O O O O o S       ",
"                    Q z @ O O O O O O O O O O O O O O O O O O O O O O O O O o G       ",
"                    O O O O O O O O O O O O O O O O O O O O O O O O O O O O O N d.    ",
"                    O O O O O O O O O O O O O O O O O O O O O O O O O O O O O : l 8.  ",
"                    O O O O O O O O O O O O O O O O O O O O O O O O O O O O O . @ 1.  ",
"                    O O O O O O O O O O O O O O O O O O O O O O O O O O O O O X : 4.  ",
"                    O O O O O O O O O O O O O O O O O O O O O O O O O O O O O X : 4.  ",
"                    O O O O O O O O O O O O O O O O O O O O O O O O O O O O O X : 4.  ",
"                    O O O O O O O O O O O O O O O O O O O O O O O O O O O O O X : 4.  ",
"                    O O O O O O O O O O O O O O O O O O O O O O O O O O O O O X : 4.  ",
"                    O O O O O O O O O O O O O O O O O O O O O O O O O O O O O X : 4.  ",
"                    X o O o X O O O O O O O O O O O O O O O O O O O O O o X O . @ 1.  ",
"                    a 8 @ q i - O O O O O O O O O O O O O O O O O O O O 8 i - - l 8.  ",
"                    j.^ 6 :.7.q X O O O O O O O o o O O O o O O O O X @ } 7.i z d.    ",
"                      d.^ h.g.i 8 S ~ ~ ~ l ; f _ ) 5 > N ~ F F F F S ~ d.  :.1.      ",
"                            f.a Q         | 4 ' { [ / e 5.                            ",
"                              8.h.  6.Q F p * d ) / 5 - m 2.                          ",
"                              k.j.9.z O w r r r r r r r r W 9.j.g.g.l.                ",
"                            j.V i p - r #.C.V.V.V.V.V.V.C.X.b i p i ^                 ",
"                          d. .I % + s ..P.Q.R.R.R.R.R.R.Q.Z.T $ + v ! <.z.            ",
"                          G v B.R 0 X.K.U.U.U.U.U.U.U.U.U.U.K.I u @.o.y ,.            ",
"                      d.~ E ..Y r : =.v.r.e.e.e.e.e.e.e.e.c.c.q.*.H R ..! } l.        ",
"                      <.6 O.C.r # j -.a.p.p.p.p.p.p.p.p.p.p.p.a.w.g J D.U i d.        ",
"                      <.0 O.V.r c V.G.!.!.!.I.I.I.I.I.I.I.I.I.!.&.y J D.U i d.        ",
"                      1.6 K R $ A n.m.b.b.b.b.b.b.b.b.b.b.b.b.m.s.k r R x i f.        ",
"                      4.> = 3 O C y.i.u.u.u.u.u.u.u.u.u.u.u.u.i.t.h + 3 + i f.        ",
"                      3., / _ 1 A x.n.n.n.n.n.n.n.n.n.n.n.n.n.M.s.k 5 ` d i f.        ",
"                      3., ` ' < P P.T.L.L.L.L.Y.Y.Y.Y.Y.Y.L.L.T.A.x d ] ( i f.        ",
"                      4.; 1 < * Y P.T.L.L.L.Y.Y.Y.Y.Y.Y.Y.L.L.T.A.x & 2 & i f.        ",
"                      d.~ S n > U J.T.Y.Y.Y.J.$.X.....+.D.Y.Y.E.S.s 7 D S } l.        ",
"                            9.i L J.T.Y.Y.E.D.J - 6 : r %.E.Y.E.S.s N l.              ",
"                            d.i L Y.W.E.E.W.H.v 9 ;.m 0 $.W.E.W.F.s B                 ",
"                            d.i c B.C.V.V.C.$.s N l.:.0 ..C.V.C.#.w B                 ",
"                            f.i # r r r r t r # N l.:.@ 0 t r r w + B                 ",
"                            l.} G Z 8 . X X X X N l.>.O X X o a F Q 4.                ",
"                                  j.N o O O O X N l.>.@ o o @ }                       ",
"                                d.F q O O O O X N l.>.@ o O @ l Q Q 4.                ",
"                                ,.@ X O O O O X N l.>.@ o O O O o . V                 "
};
