/* XPM */
static char *_0462bfde8ef49f4e85becd169c0194fuWVJUwH2U3ApFPiR[] = {
/* columns rows colors chars-per-pixel */
"43 50 192 2 ",
"   c #84357D",
".  c #0D0A00",
"X  c #160E03",
"o  c #1B1501",
"O  c #2F050E",
"+  c #370D04",
"@  c #390E06",
"#  c #350B0E",
"$  c #3A0F0D",
"%  c #32070A",
"&  c #3D120E",
"*  c #3E1412",
"=  c #391917",
"-  c #2B0E1A",
";  c #2E2402",
":  c #3F1827",
">  c #3F2223",
",  c #451A0E",
"<  c #491C0E",
"1  c #41160E",
"2  c #411515",
"3  c #431719",
"4  c #44191C",
"5  c #4D2204",
"6  c #4E220E",
"7  c #44210C",
"8  c #51250E",
"9  c #55290E",
"0  c #5A2D0E",
"q  c #5A2D05",
"w  c #493000",
"e  c #5E310D",
"r  c #472117",
"t  c #6B3D06",
"y  c #62350C",
"u  c #643708",
"i  c #653811",
"p  c #461922",
"a  c #4B1C25",
"s  c #4B1B2A",
"d  c #581A28",
"f  c #48222B",
"g  c #482837",
"h  c #512332",
"j  c #55263A",
"k  c #56283C",
"l  c #592B3A",
"z  c #44323A",
"x  c #4D3230",
"c  c #6F4003",
"v  c #6D400D",
"b  c #714006",
"n  c #76470B",
"m  c #7F500D",
"M  c #6D5605",
"N  c #601041",
"B  c #6A1655",
"V  c #5C2C45",
"C  c #572E44",
"Z  c #463B45",
"A  c #41384A",
"S  c #493847",
"D  c #52364D",
"F  c #5B2C54",
"G  c #433B51",
"H  c #553E55",
"J  c #61314F",
"K  c #643353",
"L  c #663658",
"P  c #69385E",
"I  c #673657",
"U  c #6F1F69",
"Y  c #663564",
"T  c #84357D",
"R  c #6C3A6C",
"E  c #683766",
"W  c #713E6B",
"Q  c #683872",
"!  c #742475",
"~  c #474B59",
"^  c #685644",
"/  c #7D4B54",
"(  c #4C546B",
")  c #4D546B",
"_  c #51556F",
"`  c #5A4B75",
"'  c #4E5D78",
"]  c #515470",
"[  c #505F7B",
"{  c #515C77",
"}  c #4F4D68",
"|  c #72406D",
" . c #6D4C79",
".. c #84357D",
"X. c #7A467B",
"o. c #71427B",
"O. c #6A517C",
"+. c #67466E",
"@. c #8C5D05",
"#. c #8A5A0D",
"$. c #876807",
"%. c #93640E",
"&. c #996B0A",
"*. c #8F7107",
"=. c #987808",
"-. c #A4730E",
";. c #AB7A0E",
":. c #A77516",
">. c #A36F08",
",. c #8D5C20",
"<. c #8F284D",
"1. c #831479",
"2. c #8A5578",
"3. c #B4820E",
"4. c #B88708",
"5. c #BB940A",
"6. c #C18E0E",
"7. c #C5930E",
"8. c #C7990C",
"9. c #D29E0E",
"0. c #CFA00E",
"q. c #D7A30C",
"w. c #DDAB0D",
"e. c #DAA60A",
"r. c #DFB00E",
"t. c #E1AD0E",
"y. c #E6B50D",
"u. c #EBB60E",
"i. c #EDBC0E",
"p. c #E7BD0D",
"a. c #F2BD0E",
"s. c #FAC50E",
"d. c #FFCB0E",
"f. c #F6C10E",
"g. c #FFD20E",
"h. c #FFDB0E",
"j. c #7F4B85",
"k. c #51678F",
"l. c #566182",
"z. c #536991",
"x. c #7D4FAE",
"c. c #5B7CA2",
"v. c #5674A0",
"b. c #6C62A4",
"n. c #7777CA",
"m. c #85248F",
"M. c #84357D",
"N. c #834D8B",
"B. c #834B86",
"V. c #84357D",
"C. c #84357D",
"Z. c #84357D",
"A. c #84357D",
"S. c #84357D",
"D. c #84357D",
"F. c #84357D",
"G. c #84357D",
"H. c #84357D",
"J. c #84357D",
"K. c #84357D",
"L. c #84357D",
"P. c #84357D",
"I. c #84357D",
"U. c #84357D",
"Y. c #84357D",
"T. c #84357D",
"R. c #84357D",
"E. c #84357D",
"W. c #84357D",
"Q. c #84357D",
"!. c #84357D",
"~. c #84357D",
"^. c #84357D",
"/. c #84357D",
"(. c #84357D",
"). c #84357D",
"_. c #84357D",
"`. c #84357D",
"'. c #5D81AE",
"]. c #5F8ABA",
"[. c #6683BD",
"{. c #5F92C3",
"}. c #6191C4",
"|. c #6295CA",
" X c #6D8BD0",
".X c #649BD2",
"XX c #6897D6",
"oX c #66A1DD",
"OX c #7E86E3",
"+X c #68B1EF",
"@X c #68B1F0",
"#X c #8289EC",
/* pixels */
"                                                                                      ",
"                                    E.Z.Z.S.S.S.S.S.S.S.S.S.S.Z.F.                    ",
"                                  ^.T 2 3 4 4 4 4 4 4 4 4 4 4 2 j G.                  ",
"                                E.W a + @ @ @ @ @ @ @ @ @ @ @ + 2 K W ..K.            ",
"                              ~.X.* @ & & & & & & & & & & & & & & & @ * X.~.          ",
"                            !.P p & & & & & & & & & & & & & & & & & & & p P !.        ",
"                          W.X.4 + & & & & & & & & & & & & & & & & & & & + 4 X.W.      ",
"                          ..2 & & & & & & & & & & & & & & & & & & & & & & & 2 ..      ",
"                          T + & & & & & & & & & & & & & & $ # $ & # $ & & & + T       ",
"                        E.K & & & & & & & & & & & & & & $ < e 6 1 0 9 1 & & @ T       ",
"                      F.V 3 & & & & & & & & & & & & & & # v 7.#.9 3.;.< $ & @ T       ",
"                      C.* + & & & & & & & & & & & & $ , v 3.i.%.9 0.7.< % 4 K S.      ",
"                      Z.3 @ & & & & & & & & & & & & # 8 6.d.s.%.y 9.7.9 + h G.        ",
"                      Z.3 @ & & & & & & & $ # # # & # 9 8.g.d.9.4.u.u.3.t h W.        ",
"                      Z.3 @ & & & & & & & 6 y y 9 & # 9 8.d.d.d.d.d.d.s.@.h W.        ",
"                      Z.3 @ & & & & & $ & #.q.t.;.6 O 9 8.d.d.d.d.d.d.s.@.h W.        ",
"                      Z.3 @ & & & & & $ & &.g.h.r.%.0 9 7.g.s.8.*.*.5.i.@.h W.        ",
"                      Z.3 @ & & & & & $ & %.a.d.d.a.%.9 7.g.s.$.o X M y.&.l G.        ",
"                      Z.3 @ & & & & & & & 0 %.w.g.d.%.8 7.g.s.8.*.*.5.a.e.:./ A.      ",
"                      Z.2 @ & & & & & & & # < -.u.s.;.n 9.d.d.d.d.d.d.d.g.w.u Y       ",
"                      Z.2 @ & & & & & & & $ & 8 %.u.a.w.a.d.d.d.d.d.d.d.g.w.u Y       ",
"                      W.| f & @ & & & & & & & # 9 -.w.d.d.d.d.d.d.d.w.=.=.$.5 E       ",
"                          T & 2 2 & & & & & & & & < -.s.d.d.d.d.d.d.4.; . X $ ..      ",
"                          P a j.T & @ & @ @ & & # # %.s.g.d.d.d.g.g.y.=.w - o.W.      ",
"                          X.T ^.F.k 2 2 h a & $ , y 3.f.y.q.q.q.q.q.e.q.,.P !.        ",
"                          ^.~.    E.V j F.X.& % i 7.f.u.#.e y y y y u i 2.~.          ",
"                                    C.V.  E.T p n p.h.y.v : Y R R R E R H.            ",
"                                            ~.F t w.d.w.t F ~.                        ",
"                                              L 5 m @.m 5 L                           ",
"                                            G.V = g : @ @ V G.                        ",
"                                          S.j 2 z v.} $ @ 2 j S.                      ",
"                                        D.O.~ = S |.'.} ~ ~ ~ O.D.                    ",
"                                      E.k ] [.S Z }.oX|.XXXXXX} k E.                  ",
"                                      G.s ! L.B Z }.c.` R.`./.U a K.                  ",
"                                      H.h 1.L.B Z }.' s M.U.U.m.D Z.                  ",
"                                      J.h ` n.D Z }.{ f b.#XOX Xc.H X.                ",
"                                      J.h Q Y.F f ' A s x.(.).(.Y.h K                 ",
"                                      H.h 1.P.B & r 7 d M.I.I.I.P.N I                 ",
"                                      J.h Q T.F q >.4.:.<.m.R.(.Y.j L                 ",
"                                      J.h ( {.G t y.h.y.c A |.+X{.z I                 ",
"                                      J.h ( }.G b y.h.y.c A |.@X{.z K                 ",
"                                      J.f ( .Xz.^ :.4.:.^ k..X].l.+.C.                ",
"                                      E.k ) .XoXc.x < x c.oX.X_ C G.                  ",
"                                        D. .] }..Xv.k.v..X}._  .D.                    ",
"                                          B.4 [ ].].].].].[ 4 B.                      ",
"                                          N.* > z z z z z > * N.                      ",
"                                          G.T a + @ @ @ + a W E.                      ",
"                                            ~.K @ & & & @ J Q.                        ",
"                                              L @ & & & & s R G.                      ",
"                                              L @ & & & & @ & N.                      "
};
